<svg xmlns="http://www.w3.org/2000/svg" xmlns:xlink="http://www.w3.org/1999/xlink" width="500" zoomAndPan="magnify" viewBox="0 0 375 374.999991" height="500" preserveAspectRatio="xMidYMid meet" version="1.0"><defs><clipPath id="4475b3961a"><path d="M 0 54 L 375 54 L 375 255 L 0 255 Z M 0 54 " clip-rule="nonzero"/></clipPath><clipPath id="d33e8ecf6b"><path d="M -45.699219 243.550781 L 170.167969 -83.957031 L 386.835938 58.851562 L 170.96875 386.359375 Z M -45.699219 243.550781 " clip-rule="nonzero"/></clipPath><clipPath id="96d1c80663"><path d="M -45.699219 243.550781 L 170.167969 -83.957031 L 386.835938 58.851562 L 170.96875 386.359375 Z M -45.699219 243.550781 " clip-rule="nonzero"/></clipPath><clipPath id="b8791307f8"><path d="M 0 57 L 375 57 L 375 254 L 0 254 Z M 0 57 " clip-rule="nonzero"/></clipPath><clipPath id="87191035ac"><path d="M -45.699219 243.550781 L 170.167969 -83.957031 L 386.835938 58.851562 L 170.96875 386.359375 Z M -45.699219 243.550781 " clip-rule="nonzero"/></clipPath><clipPath id="3e7abe29e7"><path d="M -45.699219 243.550781 L 170.167969 -83.957031 L 386.835938 58.851562 L 170.96875 386.359375 Z M -45.699219 243.550781 " clip-rule="nonzero"/></clipPath><clipPath id="4b838b0128"><path d="M 0 60 L 375 60 L 375 254 L 0 254 Z M 0 60 " clip-rule="nonzero"/></clipPath><clipPath id="cf51c26539"><path d="M -45.699219 243.550781 L 170.167969 -83.957031 L 386.835938 58.851562 L 170.96875 386.359375 Z M -45.699219 243.550781 " clip-rule="nonzero"/></clipPath><clipPath id="13f203c086"><path d="M -45.699219 243.550781 L 170.167969 -83.957031 L 386.835938 58.851562 L 170.96875 386.359375 Z M -45.699219 243.550781 " clip-rule="nonzero"/></clipPath><clipPath id="8807b8d8c9"><path d="M 0 64 L 372 64 L 372 254 L 0 254 Z M 0 64 " clip-rule="nonzero"/></clipPath><clipPath id="6b7b03c6c0"><path d="M -45.699219 243.550781 L 170.167969 -83.957031 L 386.835938 58.851562 L 170.96875 386.359375 Z M -45.699219 243.550781 " clip-rule="nonzero"/></clipPath><clipPath id="80b18d4c96"><path d="M -45.699219 243.550781 L 170.167969 -83.957031 L 386.835938 58.851562 L 170.96875 386.359375 Z M -45.699219 243.550781 " clip-rule="nonzero"/></clipPath><clipPath id="8a14303603"><path d="M 0 67 L 369 67 L 369 253 L 0 253 Z M 0 67 " clip-rule="nonzero"/></clipPath><clipPath id="2e50000a1e"><path d="M -45.699219 243.550781 L 170.167969 -83.957031 L 386.835938 58.851562 L 170.96875 386.359375 Z M -45.699219 243.550781 " clip-rule="nonzero"/></clipPath><clipPath id="95c40111c1"><path d="M -45.699219 243.550781 L 170.167969 -83.957031 L 386.835938 58.851562 L 170.96875 386.359375 Z M -45.699219 243.550781 " clip-rule="nonzero"/></clipPath><clipPath id="7fb5f50db2"><path d="M 0 70 L 366 70 L 366 253 L 0 253 Z M 0 70 " clip-rule="nonzero"/></clipPath><clipPath id="8f09b4c28f"><path d="M -45.699219 243.550781 L 170.167969 -83.957031 L 386.835938 58.851562 L 170.96875 386.359375 Z M -45.699219 243.550781 " clip-rule="nonzero"/></clipPath><clipPath id="b47faa21d8"><path d="M -45.699219 243.550781 L 170.167969 -83.957031 L 386.835938 58.851562 L 170.96875 386.359375 Z M -45.699219 243.550781 " clip-rule="nonzero"/></clipPath><clipPath id="d4e40fe53d"><path d="M 0 73 L 364 73 L 364 252 L 0 252 Z M 0 73 " clip-rule="nonzero"/></clipPath><clipPath id="46a8d22754"><path d="M -45.699219 243.550781 L 170.167969 -83.957031 L 386.835938 58.851562 L 170.96875 386.359375 Z M -45.699219 243.550781 " clip-rule="nonzero"/></clipPath><clipPath id="ac0e3e3a1c"><path d="M -45.699219 243.550781 L 170.167969 -83.957031 L 386.835938 58.851562 L 170.96875 386.359375 Z M -45.699219 243.550781 " clip-rule="nonzero"/></clipPath><clipPath id="7ad96e75ae"><path d="M 0 76 L 361 76 L 361 252 L 0 252 Z M 0 76 " clip-rule="nonzero"/></clipPath><clipPath id="b142e214b6"><path d="M -45.699219 243.550781 L 170.167969 -83.957031 L 386.835938 58.851562 L 170.96875 386.359375 Z M -45.699219 243.550781 " clip-rule="nonzero"/></clipPath><clipPath id="b749bdfa59"><path d="M -45.699219 243.550781 L 170.167969 -83.957031 L 386.835938 58.851562 L 170.96875 386.359375 Z M -45.699219 243.550781 " clip-rule="nonzero"/></clipPath><clipPath id="3d6d17710b"><path d="M 0 79 L 358 79 L 358 251 L 0 251 Z M 0 79 " clip-rule="nonzero"/></clipPath><clipPath id="c396a3d9b6"><path d="M -45.699219 243.550781 L 170.167969 -83.957031 L 386.835938 58.851562 L 170.96875 386.359375 Z M -45.699219 243.550781 " clip-rule="nonzero"/></clipPath><clipPath id="c56a0be937"><path d="M -45.699219 243.550781 L 170.167969 -83.957031 L 386.835938 58.851562 L 170.96875 386.359375 Z M -45.699219 243.550781 " clip-rule="nonzero"/></clipPath><clipPath id="cc3409fea9"><path d="M 0 82 L 355 82 L 355 251 L 0 251 Z M 0 82 " clip-rule="nonzero"/></clipPath><clipPath id="16f6a9e21c"><path d="M -45.699219 243.550781 L 170.167969 -83.957031 L 386.835938 58.851562 L 170.96875 386.359375 Z M -45.699219 243.550781 " clip-rule="nonzero"/></clipPath><clipPath id="82262b841e"><path d="M -45.699219 243.550781 L 170.167969 -83.957031 L 386.835938 58.851562 L 170.96875 386.359375 Z M -45.699219 243.550781 " clip-rule="nonzero"/></clipPath><clipPath id="02e5e90aea"><path d="M 0 86 L 352 86 L 352 251 L 0 251 Z M 0 86 " clip-rule="nonzero"/></clipPath><clipPath id="a860390223"><path d="M -45.699219 243.550781 L 170.167969 -83.957031 L 386.835938 58.851562 L 170.96875 386.359375 Z M -45.699219 243.550781 " clip-rule="nonzero"/></clipPath><clipPath id="5e8cb09f89"><path d="M -45.699219 243.550781 L 170.167969 -83.957031 L 386.835938 58.851562 L 170.96875 386.359375 Z M -45.699219 243.550781 " clip-rule="nonzero"/></clipPath><clipPath id="b6275e5c22"><path d="M 0 89 L 349 89 L 349 250 L 0 250 Z M 0 89 " clip-rule="nonzero"/></clipPath><clipPath id="b684f6c930"><path d="M -45.699219 243.550781 L 170.167969 -83.957031 L 386.835938 58.851562 L 170.96875 386.359375 Z M -45.699219 243.550781 " clip-rule="nonzero"/></clipPath><clipPath id="a419f8a0c6"><path d="M -45.699219 243.550781 L 170.167969 -83.957031 L 386.835938 58.851562 L 170.96875 386.359375 Z M -45.699219 243.550781 " clip-rule="nonzero"/></clipPath><clipPath id="82801064d5"><path d="M 0 92 L 346 92 L 346 250 L 0 250 Z M 0 92 " clip-rule="nonzero"/></clipPath><clipPath id="b87e20a0d0"><path d="M -45.699219 243.550781 L 170.167969 -83.957031 L 386.835938 58.851562 L 170.96875 386.359375 Z M -45.699219 243.550781 " clip-rule="nonzero"/></clipPath><clipPath id="ea32eb8e20"><path d="M -45.699219 243.550781 L 170.167969 -83.957031 L 386.835938 58.851562 L 170.96875 386.359375 Z M -45.699219 243.550781 " clip-rule="nonzero"/></clipPath><clipPath id="f64731c3f1"><path d="M 0 95 L 343 95 L 343 249 L 0 249 Z M 0 95 " clip-rule="nonzero"/></clipPath><clipPath id="227f8b823f"><path d="M -45.699219 243.550781 L 170.167969 -83.957031 L 386.835938 58.851562 L 170.96875 386.359375 Z M -45.699219 243.550781 " clip-rule="nonzero"/></clipPath><clipPath id="fa02396a95"><path d="M -45.699219 243.550781 L 170.167969 -83.957031 L 386.835938 58.851562 L 170.96875 386.359375 Z M -45.699219 243.550781 " clip-rule="nonzero"/></clipPath><clipPath id="1eaffef097"><path d="M 0 98 L 340 98 L 340 249 L 0 249 Z M 0 98 " clip-rule="nonzero"/></clipPath><clipPath id="9c900c0716"><path d="M -45.699219 243.550781 L 170.167969 -83.957031 L 386.835938 58.851562 L 170.96875 386.359375 Z M -45.699219 243.550781 " clip-rule="nonzero"/></clipPath><clipPath id="2c9bab2a1e"><path d="M -45.699219 243.550781 L 170.167969 -83.957031 L 386.835938 58.851562 L 170.96875 386.359375 Z M -45.699219 243.550781 " clip-rule="nonzero"/></clipPath><clipPath id="b5db8ed0f3"><path d="M 0 101 L 338 101 L 338 248 L 0 248 Z M 0 101 " clip-rule="nonzero"/></clipPath><clipPath id="7caf4d0416"><path d="M -45.699219 243.550781 L 170.167969 -83.957031 L 386.835938 58.851562 L 170.96875 386.359375 Z M -45.699219 243.550781 " clip-rule="nonzero"/></clipPath><clipPath id="ad350395f9"><path d="M -45.699219 243.550781 L 170.167969 -83.957031 L 386.835938 58.851562 L 170.96875 386.359375 Z M -45.699219 243.550781 " clip-rule="nonzero"/></clipPath><clipPath id="959abbabba"><path d="M 0 105 L 335 105 L 335 248 L 0 248 Z M 0 105 " clip-rule="nonzero"/></clipPath><clipPath id="b7e99d3fcb"><path d="M -45.699219 243.550781 L 170.167969 -83.957031 L 386.835938 58.851562 L 170.96875 386.359375 Z M -45.699219 243.550781 " clip-rule="nonzero"/></clipPath><clipPath id="818f4b7565"><path d="M -45.699219 243.550781 L 170.167969 -83.957031 L 386.835938 58.851562 L 170.96875 386.359375 Z M -45.699219 243.550781 " clip-rule="nonzero"/></clipPath><clipPath id="cef6bb5138"><path d="M 0 108 L 332 108 L 332 248 L 0 248 Z M 0 108 " clip-rule="nonzero"/></clipPath><clipPath id="7710650464"><path d="M -45.699219 243.550781 L 170.167969 -83.957031 L 386.835938 58.851562 L 170.96875 386.359375 Z M -45.699219 243.550781 " clip-rule="nonzero"/></clipPath><clipPath id="d6898542d5"><path d="M -45.699219 243.550781 L 170.167969 -83.957031 L 386.835938 58.851562 L 170.96875 386.359375 Z M -45.699219 243.550781 " clip-rule="nonzero"/></clipPath><clipPath id="3fd2816121"><path d="M 0 111 L 329 111 L 329 247 L 0 247 Z M 0 111 " clip-rule="nonzero"/></clipPath><clipPath id="d0e055d4f3"><path d="M -45.699219 243.550781 L 170.167969 -83.957031 L 386.835938 58.851562 L 170.96875 386.359375 Z M -45.699219 243.550781 " clip-rule="nonzero"/></clipPath><clipPath id="9a521067c5"><path d="M -45.699219 243.550781 L 170.167969 -83.957031 L 386.835938 58.851562 L 170.96875 386.359375 Z M -45.699219 243.550781 " clip-rule="nonzero"/></clipPath><clipPath id="4176177038"><path d="M 0 114 L 326 114 L 326 247 L 0 247 Z M 0 114 " clip-rule="nonzero"/></clipPath><clipPath id="037c464661"><path d="M -45.699219 243.550781 L 170.167969 -83.957031 L 386.835938 58.851562 L 170.96875 386.359375 Z M -45.699219 243.550781 " clip-rule="nonzero"/></clipPath><clipPath id="83cf57cf5f"><path d="M -45.699219 243.550781 L 170.167969 -83.957031 L 386.835938 58.851562 L 170.96875 386.359375 Z M -45.699219 243.550781 " clip-rule="nonzero"/></clipPath><clipPath id="7fdf494332"><path d="M 0 117 L 323 117 L 323 246 L 0 246 Z M 0 117 " clip-rule="nonzero"/></clipPath><clipPath id="8e7f673fd6"><path d="M -45.699219 243.550781 L 170.167969 -83.957031 L 386.835938 58.851562 L 170.96875 386.359375 Z M -45.699219 243.550781 " clip-rule="nonzero"/></clipPath><clipPath id="5956f23c10"><path d="M -45.699219 243.550781 L 170.167969 -83.957031 L 386.835938 58.851562 L 170.96875 386.359375 Z M -45.699219 243.550781 " clip-rule="nonzero"/></clipPath><clipPath id="c8b4007822"><path d="M 0 120 L 320 120 L 320 246 L 0 246 Z M 0 120 " clip-rule="nonzero"/></clipPath><clipPath id="d5702845f1"><path d="M -45.699219 243.550781 L 170.167969 -83.957031 L 386.835938 58.851562 L 170.96875 386.359375 Z M -45.699219 243.550781 " clip-rule="nonzero"/></clipPath><clipPath id="87e9fee2b2"><path d="M -45.699219 243.550781 L 170.167969 -83.957031 L 386.835938 58.851562 L 170.96875 386.359375 Z M -45.699219 243.550781 " clip-rule="nonzero"/></clipPath></defs><g clip-path="url(#4475b3961a)"><g clip-path="url(#d33e8ecf6b)"><g clip-path="url(#96d1c80663)"><path fill="#d9d9d9" d="M 376.898438 68.546875 C 372.738281 74.863281 365.554688 79.613281 358.261719 81.191406 C 345.839844 83.871094 333.167969 80.128906 321.257812 76.066406 L 319.238281 75.375 C 308.039062 71.539062 296.464844 67.570312 284.691406 68.542969 C 268.453125 69.886719 252.429688 81.320312 242.875 98.402344 C 233.894531 114.453125 230.957031 133.429688 229.261719 149.875 C 228.875 153.683594 228.519531 157.570312 228.183594 161.332031 C 226.945312 175.164062 225.660156 189.457031 221.964844 203.058594 C 219.460938 212.269531 215.566406 220.515625 210.699219 226.910156 C 204.886719 234.542969 197.945312 239.285156 190.058594 241.015625 C 176.90625 243.894531 162.152344 238.09375 146.214844 223.761719 C 140.097656 218.265625 134.253906 212.285156 128.597656 206.5 C 120.988281 198.722656 113.125 190.675781 104.527344 183.730469 C 92.1875 173.757812 73.019531 162.25 51.835938 164.054688 C 33.261719 165.632812 14.902344 177.886719 2.683594 196.871094 C -7.734375 213.0625 -13.074219 231.535156 -17.890625 254.292969 L -18.328125 254.203125 C -13.503906 231.394531 -8.152344 212.875 2.304688 196.628906 C 14.574219 177.546875 33.085938 165.195312 51.796875 163.605469 C 73.136719 161.789062 92.402344 173.355469 104.8125 183.378906 C 113.429688 190.339844 121.304688 198.390625 128.917969 206.179688 C 134.570312 211.957031 140.414062 217.933594 146.515625 223.417969 C 162.347656 237.644531 176.964844 243.417969 189.964844 240.566406 C 204.175781 237.453125 215.976562 223.382812 221.535156 202.9375 C 225.222656 189.375 226.5 175.09375 227.742188 161.289062 C 228.074219 157.527344 228.425781 153.636719 228.820312 149.824219 C 230.515625 133.332031 233.46875 114.300781 242.484375 98.175781 C 252.109375 80.972656 268.269531 69.445312 284.65625 68.089844 C 296.523438 67.109375 308.144531 71.089844 319.386719 74.945312 L 321.40625 75.636719 C 333.257812 79.675781 345.859375 83.402344 358.167969 80.746094 C 370.039062 78.1875 381.617188 67.085938 379.929688 54.648438 L 380.375 54.585938 C 381.054688 59.605469 379.621094 64.410156 376.902344 68.542969 Z M 376.898438 68.546875 " fill-opacity="1" fill-rule="nonzero"/></g></g></g><g clip-path="url(#b8791307f8)"><g clip-path="url(#87191035ac)"><g clip-path="url(#3e7abe29e7)"><path fill="#d9d9d9" d="M 373.945312 71.617188 C 369.824219 77.867188 362.800781 82.523438 355.769531 84.210938 C 343.652344 87.113281 331.253906 83.84375 319.59375 80.253906 C 318.832031 80.019531 318.070312 79.78125 317.308594 79.542969 C 308.207031 76.71875 298.796875 73.792969 289.257812 73.539062 C 287.332031 73.492188 285.433594 73.546875 283.613281 73.714844 C 267.46875 75.203125 251.890625 85.949219 241.960938 102.445312 C 233.34375 116.753906 229.980469 132.945312 228.011719 145.460938 C 227.734375 147.234375 227.460938 149.058594 227.1875 151.042969 C 226.679688 154.707031 226.21875 158.4375 225.769531 162.046875 C 224.179688 174.878906 222.527344 188.148438 218.625 200.75 C 215.75 210.015625 206.871094 232.015625 186.625 236.074219 C 185.15625 236.367188 183.648438 236.5625 182.136719 236.644531 C 170.421875 237.292969 157.316406 231.515625 143.191406 219.484375 C 137.25 214.421875 131.546875 208.949219 126.039062 203.660156 C 118.292969 196.222656 110.285156 188.535156 101.585938 181.984375 C 90.292969 173.46875 78.914062 167.929688 67.765625 165.507812 C 61.648438 164.183594 55.605469 163.824219 49.808594 164.453125 C 31.683594 166.414062 13.679688 178.710938 1.664062 197.367188 C -8.625 213.324219 -14.058594 231.492188 -19.058594 253.871094 L -19.5 253.777344 C -14.488281 231.351562 -9.039062 213.136719 1.285156 197.125 C 13.359375 178.367188 31.5 165.984375 49.761719 164.007812 C 55.605469 163.378906 61.695312 163.734375 67.859375 165.070312 C 79.074219 167.5 90.511719 173.074219 101.855469 181.621094 C 110.574219 188.195312 118.59375 195.890625 126.347656 203.335938 C 131.855469 208.625 137.550781 214.089844 143.480469 219.140625 C 157.515625 231.097656 170.515625 236.832031 182.109375 236.195312 C 183.597656 236.113281 185.085938 235.925781 186.53125 235.636719 C 206.542969 231.625 215.339844 209.808594 218.1875 200.617188 C 222.085938 188.054688 223.730469 174.804688 225.316406 161.988281 C 225.765625 158.382812 226.226562 154.648438 226.734375 150.980469 C 227.011719 148.992188 227.277344 147.164062 227.558594 145.390625 C 229.535156 132.835938 232.910156 116.585938 241.566406 102.210938 C 246.203125 94.511719 252.335938 87.785156 259.304688 82.761719 C 266.851562 77.316406 275.242188 74.03125 283.558594 73.265625 C 285.394531 73.097656 287.316406 73.035156 289.25 73.089844 C 298.851562 73.351562 308.292969 76.277344 317.425781 79.113281 C 318.1875 79.351562 318.949219 79.585938 319.710938 79.824219 C 331.316406 83.398438 343.644531 86.652344 355.648438 83.773438 C 367.078125 81.039062 378.496094 70.324219 377.023438 57.792969 L 377.46875 57.742188 C 378.0625 62.789062 376.613281 67.542969 373.925781 71.617188 Z M 373.945312 71.617188 " fill-opacity="1" fill-rule="nonzero"/></g></g></g><g clip-path="url(#4b838b0128)"><g clip-path="url(#cf51c26539)"><g clip-path="url(#13f203c086)"><path fill="#d9d9d9" d="M 370.894531 74.707031 C 370.265625 75.660156 369.5625 76.589844 368.789062 77.492188 C 364.796875 82.132812 359.144531 85.683594 353.28125 87.238281 C 341.46875 90.371094 329.339844 87.574219 317.929688 84.445312 C 317.070312 84.207031 316.210938 83.96875 315.347656 83.730469 C 306.507812 81.28125 297.371094 78.75 288.097656 78.648438 C 286.203125 78.628906 284.335938 78.710938 282.542969 78.894531 C 266.875 80.5 251.492188 90.65625 241.3125 106.101562 C 241.226562 106.234375 241.136719 106.363281 241.050781 106.5 C 232.234375 120.070312 228.433594 135.277344 226.105469 147.007812 C 225.777344 148.65625 225.457031 150.359375 225.121094 152.226562 C 224.496094 155.714844 223.921875 159.261719 223.359375 162.6875 C 221.421875 174.550781 219.414062 186.816406 215.292969 198.449219 C 212.226562 207.085938 202.964844 227.558594 183.199219 231.144531 C 181.757812 231.40625 180.269531 231.570312 178.78125 231.636719 C 167.15625 232.128906 154.527344 226.757812 140.179688 215.214844 C 134.453125 210.601562 128.933594 205.648438 123.605469 200.867188 C 115.683594 193.757812 107.496094 186.410156 98.65625 180.238281 C 87.449219 172.402344 76.246094 167.410156 65.355469 165.398438 C 59.359375 164.292969 53.460938 164.109375 47.800781 164.855469 C 30.117188 167.199219 12.472656 179.527344 0.65625 197.863281 C -9.496094 213.585938 -15.03125 231.453125 -20.210938 253.453125 L -20.648438 253.347656 C -15.457031 231.304688 -9.910156 213.394531 0.277344 197.617188 C 5.886719 188.957031 12.957031 181.363281 20.75 175.683594 C 29.320312 169.4375 38.398438 165.644531 47.742188 164.40625 C 53.449219 163.652344 59.398438 163.835938 65.433594 164.949219 C 76.390625 166.972656 87.652344 171.988281 98.914062 179.863281 C 107.773438 186.050781 115.976562 193.414062 123.902344 200.527344 C 129.226562 205.3125 134.742188 210.253906 140.460938 214.863281 C 154.722656 226.335938 167.25 231.675781 178.761719 231.183594 C 180.230469 231.121094 181.695312 230.957031 183.125 230.695312 C 202.660156 227.152344 211.828125 206.855469 214.871094 198.292969 C 218.980469 186.699219 220.980469 174.453125 222.917969 162.605469 C 223.476562 159.175781 224.058594 155.628906 224.679688 152.132812 C 225.015625 150.269531 225.335938 148.558594 225.664062 146.910156 C 227.996094 135.136719 231.816406 119.882812 240.671875 106.246094 C 250.929688 90.464844 266.558594 80.066406 282.496094 78.4375 C 284.304688 78.25 286.191406 78.167969 288.101562 78.1875 C 297.433594 78.289062 306.601562 80.832031 315.464844 83.289062 C 316.324219 83.527344 317.183594 83.765625 318.042969 84.003906 C 329.390625 87.121094 341.457031 89.898438 353.164062 86.796875 C 364.207031 83.875 375.363281 73.15625 374.148438 60.941406 L 374.597656 60.898438 C 375.0625 65.5625 373.761719 70.359375 370.898438 74.703125 Z M 370.894531 74.707031 " fill-opacity="1" fill-rule="nonzero"/></g></g></g><g clip-path="url(#8807b8d8c9)"><g clip-path="url(#6b7b03c6c0)"><g clip-path="url(#80b18d4c96)"><path fill="#d9d9d9" d="M 367.9375 77.691406 C 363.964844 83.71875 357.414062 88.324219 350.789062 90.253906 C 339.265625 93.617188 327.410156 91.292969 316.253906 88.625 C 315.289062 88.394531 314.316406 88.160156 313.339844 87.921875 C 304.78125 85.847656 295.929688 83.699219 286.929688 83.746094 C 285.066406 83.75 283.230469 83.859375 281.460938 84.058594 C 266.003906 85.796875 250.550781 95.699219 240.125 110.539062 C 231.121094 123.363281 226.875 137.582031 224.183594 148.535156 C 223.804688 150.070312 223.433594 151.65625 223.042969 153.386719 C 222.300781 156.675781 221.605469 160.011719 220.929688 163.234375 C 218.648438 174.152344 216.285156 185.445312 211.945312 196.132812 C 208.898438 203.613281 204.75 210.203125 199.941406 215.183594 C 194.058594 221.28125 187.269531 224.984375 179.765625 226.195312 C 178.34375 226.425781 176.878906 226.5625 175.410156 226.609375 C 164.042969 226.945312 151.53125 221.816406 137.15625 210.929688 C 131.683594 206.777344 126.398438 202.363281 121.285156 198.09375 C 112.773438 190.984375 104.734375 184.269531 95.710938 178.472656 C 84.589844 171.316406 73.558594 166.871094 62.917969 165.269531 C 57.054688 164.382812 51.285156 164.371094 45.769531 165.238281 C 28.484375 167.96875 11.859375 179.78125 0.0546875 197.6875 C -0.0859375 197.90625 -0.230469 198.121094 -0.375 198.339844 C -11.515625 215.554688 -17.066406 235.589844 -21.390625 253.011719 L -21.828125 252.90625 C -17.488281 235.445312 -11.929688 215.375 -0.753906 198.097656 C 11.148438 179.707031 28.074219 167.578125 45.699219 164.792969 C 51.257812 163.917969 57.074219 163.925781 62.988281 164.820312 C 73.6875 166.4375 84.777344 170.902344 95.949219 178.09375 C 104.992188 183.90625 113.417969 190.941406 121.566406 197.746094 C 126.675781 202.011719 131.957031 206.417969 137.417969 210.570312 C 151.710938 221.390625 164.132812 226.492188 175.390625 226.15625 C 176.835938 226.113281 178.285156 225.976562 179.6875 225.75 C 198.738281 222.671875 208.300781 203.894531 211.523438 195.960938 C 215.847656 185.3125 218.203125 174.042969 220.484375 163.144531 C 221.15625 159.917969 221.859375 156.582031 222.597656 153.285156 C 222.988281 151.554688 223.359375 149.964844 223.742188 148.425781 C 226.441406 137.433594 230.707031 123.164062 239.753906 110.28125 C 250.253906 95.332031 265.820312 85.363281 281.410156 83.605469 C 283.1875 83.40625 285.046875 83.300781 286.925781 83.289062 C 295.980469 83.238281 304.859375 85.398438 313.445312 87.480469 C 314.417969 87.71875 315.390625 87.953125 316.355469 88.179688 C 327.453125 90.835938 339.238281 93.148438 350.65625 89.816406 C 361.542969 86.644531 372.222656 76.148438 371.25 64.082031 L 371.699219 64.046875 C 372.097656 68.976562 370.589844 73.648438 367.933594 77.679688 Z M 367.9375 77.691406 " fill-opacity="1" fill-rule="nonzero"/></g></g></g><g clip-path="url(#8a14303603)"><g clip-path="url(#2e50000a1e)"><g clip-path="url(#95c40111c1)"><path fill="#d9d9d9" d="M 364.886719 80.800781 C 364.3125 81.671875 363.675781 82.53125 362.984375 83.359375 C 359.203125 87.894531 353.851562 91.507812 348.300781 93.285156 C 337.0625 96.882812 325.488281 95.027344 314.589844 92.820312 C 313.496094 92.597656 312.398438 92.371094 311.292969 92.144531 C 303.023438 90.433594 294.472656 88.664062 285.769531 88.859375 C 283.933594 88.898438 282.121094 89.027344 280.390625 89.238281 C 265.28125 91.097656 249.890625 100.578125 239.214844 114.597656 C 230.023438 126.660156 225.332031 139.898438 222.269531 150.085938 C 221.835938 151.519531 221.414062 152.988281 220.96875 154.570312 C 220.113281 157.632812 219.296875 160.726562 218.511719 163.722656 C 215.765625 174.1875 213.171875 184.070312 208.605469 193.839844 C 204.324219 202.984375 194.429688 218.714844 176.335938 221.273438 C 174.933594 221.472656 173.488281 221.585938 172.046875 221.609375 C 160.800781 221.796875 148.757812 217.046875 134.136719 206.671875 C 128.976562 203 123.980469 199.136719 119.144531 195.394531 C 110.347656 188.59375 102.039062 182.167969 92.78125 176.738281 C 81.75 170.265625 70.886719 166.371094 60.507812 165.167969 C 54.773438 164.503906 49.136719 164.667969 43.753906 165.65625 C 26.707031 168.808594 10.253906 180.910156 -1.382812 198.855469 C -12.378906 215.808594 -18.074219 235.492188 -22.546875 252.609375 L -22.984375 252.492188 C -18.496094 235.339844 -12.792969 215.621094 -1.757812 198.609375 C 9.960938 180.546875 26.507812 168.382812 43.675781 165.210938 C 49.097656 164.210938 54.777344 164.050781 60.558594 164.71875 C 71.003906 165.929688 81.925781 169.84375 93.007812 176.351562 C 102.296875 181.792969 110.613281 188.230469 119.421875 195.039062 C 124.253906 198.773438 129.253906 202.640625 134.402344 206.304688 C 148.9375 216.625 160.898438 221.347656 172.039062 221.164062 C 173.464844 221.140625 174.886719 221.027344 176.277344 220.832031 C 194.164062 218.304688 203.957031 202.722656 208.203125 193.652344 C 212.746094 183.921875 215.339844 174.054688 218.085938 163.613281 C 218.867188 160.617188 219.6875 157.519531 220.542969 154.457031 C 220.984375 152.871094 221.414062 151.402344 221.84375 149.960938 C 224.921875 139.738281 229.632812 126.453125 238.863281 114.328125 C 249.609375 100.214844 265.117188 90.671875 280.339844 88.796875 C 282.089844 88.582031 283.914062 88.453125 285.769531 88.410156 C 294.519531 88.214844 303.097656 89.988281 311.390625 91.707031 C 312.496094 91.933594 313.589844 92.160156 314.691406 92.382812 C 325.523438 94.578125 337.035156 96.429688 348.171875 92.863281 C 358.523438 89.550781 369.121094 79.449219 368.375 67.246094 L 368.820312 67.21875 C 369.101562 71.789062 367.722656 76.519531 364.898438 80.808594 Z M 364.886719 80.800781 " fill-opacity="1" fill-rule="nonzero"/></g></g></g><g clip-path="url(#7fb5f50db2)"><g clip-path="url(#8f09b4c28f)"><g clip-path="url(#b47faa21d8)"><path fill="#d9d9d9" d="M 361.945312 83.753906 C 358.0625 89.652344 351.871094 94.1875 345.8125 96.308594 C 334.851562 100.148438 323.089844 98.679688 312.925781 97 C 311.695312 96.796875 310.449219 96.585938 309.199219 96.375 C 301.234375 95.019531 293.003906 93.621094 284.613281 93.957031 C 282.800781 94.027344 281.019531 94.179688 279.316406 94.40625 C 264.566406 96.386719 249.230469 105.445312 238.296875 118.644531 C 228.949219 129.925781 223.796875 142.195312 220.355469 151.625 C 219.878906 152.9375 219.398438 154.285156 218.898438 155.742188 C 217.9375 158.539062 217.019531 161.359375 216.128906 164.078125 C 213.015625 173.625 210.074219 182.640625 205.265625 191.527344 C 200.734375 199.882812 190.503906 214.207031 172.90625 216.328125 C 171.527344 216.496094 170.101562 216.582031 168.675781 216.589844 C 154.285156 216.625 140.347656 208.503906 131.117188 202.386719 C 126.351562 199.21875 121.707031 195.90625 117.214844 192.710938 C 108.058594 186.191406 99.410156 180.035156 89.84375 174.976562 C 78.902344 169.183594 68.214844 165.839844 58.082031 165.039062 C 52.472656 164.589844 46.976562 164.929688 41.734375 166.039062 C 25.140625 169.574219 9.035156 181.71875 -2.402344 199.339844 C -13.246094 216.03125 -19.085938 235.359375 -23.714844 252.171875 L -24.148438 252.054688 C -19.515625 235.207031 -13.664062 215.835938 -2.777344 199.09375 C 8.753906 181.367188 24.929688 169.160156 41.644531 165.601562 C 46.921875 164.480469 52.46875 164.140625 58.117188 164.59375 C 68.308594 165.402344 79.054688 168.761719 90.050781 174.582031 C 99.648438 179.652344 108.308594 185.816406 117.476562 192.34375 C 121.964844 195.539062 126.605469 198.847656 131.371094 202.011719 C 140.554688 208.09375 154.410156 216.175781 168.679688 216.140625 C 170.089844 216.136719 171.492188 216.050781 172.855469 215.878906 C 190.257812 213.785156 200.386719 199.589844 204.875 191.3125 C 209.664062 182.464844 212.597656 173.46875 215.703125 163.9375 C 216.589844 161.210938 217.511719 158.390625 218.472656 155.59375 C 218.976562 154.132812 219.453125 152.78125 219.9375 151.46875 C 223.394531 142.003906 228.566406 129.6875 237.957031 118.355469 C 248.957031 105.070312 264.398438 95.953125 279.257812 93.960938 C 280.980469 93.730469 282.773438 93.578125 284.597656 93.503906 C 293.035156 93.167969 301.292969 94.574219 309.273438 95.929688 C 310.519531 96.140625 311.765625 96.355469 313 96.558594 C 323.109375 98.226562 334.804688 99.683594 345.664062 95.878906 C 355.632812 92.394531 365.964844 82.277344 365.472656 70.386719 L 365.921875 70.371094 C 366.121094 75.230469 364.550781 79.796875 361.941406 83.753906 Z M 361.945312 83.753906 " fill-opacity="1" fill-rule="nonzero"/></g></g></g><g clip-path="url(#d4e40fe53d)"><g clip-path="url(#46a8d22754)"><g clip-path="url(#ac0e3e3a1c)"><path fill="#d9d9d9" d="M 358.9375 86.867188 C 355.152344 92.609375 349.238281 97.070312 343.320312 99.328125 C 332.628906 103.414062 321.167969 102.433594 311.257812 101.191406 C 309.859375 101.019531 308.453125 100.832031 307.035156 100.644531 C 299.398438 99.636719 291.503906 98.59375 283.449219 99.0625 C 281.667969 99.164062 279.917969 99.339844 278.238281 99.582031 C 263.636719 101.703125 248.742188 110.128906 237.378906 122.691406 C 227.898438 133.171875 222.277344 144.484375 218.4375 153.167969 C 217.917969 154.355469 217.386719 155.582031 216.820312 156.921875 C 215.773438 159.410156 214.765625 161.914062 213.792969 164.332031 C 210.296875 173 206.996094 181.191406 201.921875 189.234375 C 196.070312 198.457031 185.707031 209.792969 169.46875 211.398438 C 168.113281 211.53125 166.714844 211.597656 165.308594 211.578125 C 151.480469 211.417969 138.15625 204.300781 128.097656 198.117188 C 123.8125 195.472656 119.621094 192.738281 115.558594 190.097656 C 105.953125 183.832031 96.871094 177.917969 86.902344 173.234375 C 76.058594 168.125 65.550781 165.332031 55.65625 164.925781 C 50.179688 164.695312 44.8125 165.207031 39.710938 166.4375 C 23.710938 170.324219 8.121094 182.324219 -3.128906 199.386719 C -3.226562 199.535156 -3.324219 199.683594 -3.421875 199.832031 C -14.117188 216.257812 -20.109375 235.242188 -24.882812 251.753906 L -25.316406 251.628906 C -20.535156 235.089844 -14.53125 216.066406 -3.800781 199.589844 C -3.699219 199.441406 -3.601562 199.289062 -3.503906 199.144531 C 7.804688 181.980469 23.492188 169.917969 39.601562 166.007812 C 44.742188 164.761719 50.152344 164.25 55.671875 164.476562 C 65.621094 164.882812 76.195312 167.691406 87.089844 172.828125 C 97.085938 177.527344 106.179688 183.449219 115.800781 189.722656 C 119.855469 192.363281 124.046875 195.09375 128.328125 197.734375 C 138.339844 203.886719 151.589844 210.972656 165.308594 211.132812 C 166.699219 211.148438 168.082031 211.085938 169.421875 210.949219 C 185.476562 209.363281 195.746094 198.140625 201.535156 188.988281 C 206.585938 180.984375 209.882812 172.8125 213.371094 164.164062 C 214.347656 161.742188 215.355469 159.238281 216.402344 156.75 C 216.96875 155.40625 217.5 154.175781 218.027344 152.988281 C 221.878906 144.273438 227.523438 132.917969 237.042969 122.390625 C 248.480469 109.75 263.46875 101.269531 278.171875 99.132812 C 279.863281 98.890625 281.628906 98.710938 283.421875 98.605469 C 291.519531 98.136719 299.4375 99.1875 307.09375 100.191406 C 308.503906 100.378906 309.914062 100.5625 311.3125 100.738281 C 321.164062 101.972656 332.566406 102.949219 343.160156 98.898438 C 352.992188 95.148438 362.820312 85.230469 362.578125 73.527344 L 363.027344 73.515625 C 363.128906 78.367188 361.53125 82.914062 358.933594 86.859375 Z M 358.9375 86.867188 " fill-opacity="1" fill-rule="nonzero"/></g></g></g><g clip-path="url(#7ad96e75ae)"><g clip-path="url(#b142e214b6)"><g clip-path="url(#b749bdfa59)"><path fill="#d9d9d9" d="M 355.90625 89.878906 C 352.179688 95.53125 346.484375 100.003906 340.832031 102.347656 C 330.398438 106.683594 319.238281 106.1875 309.589844 105.371094 C 308.003906 105.242188 306.402344 105.09375 304.796875 104.941406 C 297.511719 104.265625 289.980469 103.570312 282.289062 104.15625 C 280.539062 104.289062 278.820312 104.488281 277.167969 104.746094 C 262.945312 106.980469 248.109375 114.996094 236.464844 126.738281 C 226.890625 136.382812 220.777344 146.753906 216.519531 154.710938 C 215.910156 155.847656 215.320312 156.980469 214.738281 158.097656 C 213.640625 160.226562 212.582031 162.359375 211.554688 164.425781 C 207.648438 172.273438 203.957031 179.683594 198.570312 186.925781 C 189.742188 198.75 178.488281 205.5 166.035156 206.457031 C 164.707031 206.558594 163.324219 206.597656 161.941406 206.5625 C 148.546875 206.214844 135.203125 199.578125 125.078125 193.84375 C 121.398438 191.746094 117.777344 189.601562 114.277344 187.523438 C 104.082031 181.484375 94.453125 175.785156 83.964844 171.480469 C 73.222656 167.058594 62.882812 164.8125 53.238281 164.804688 C 47.886719 164.796875 42.65625 165.484375 37.691406 166.835938 C 22.117188 171.105469 6.871094 183.167969 -4.195312 199.960938 C -4.277344 200.082031 -4.355469 200.203125 -4.4375 200.328125 C -14.984375 216.484375 -21.121094 235.125 -26.046875 251.332031 L -26.476562 251.199219 C -21.542969 234.964844 -15.394531 216.289062 -4.8125 200.082031 C 6.339844 183.007812 21.785156 170.730469 37.578125 166.398438 C 42.578125 165.039062 47.851562 164.347656 53.238281 164.355469 C 62.945312 164.363281 73.34375 166.617188 84.140625 171.0625 C 94.65625 175.378906 104.296875 181.089844 114.507812 187.132812 C 118.007812 189.210938 121.625 191.351562 125.300781 193.445312 C 135.378906 199.15625 148.65625 205.765625 161.949219 206.105469 C 163.320312 206.136719 164.683594 206.105469 166 206.003906 C 181.566406 204.808594 192.109375 194.824219 198.210938 186.652344 C 203.570312 179.445312 207.257812 172.046875 211.15625 164.222656 C 212.183594 162.15625 213.242188 160.023438 214.339844 157.890625 C 214.917969 156.769531 215.515625 155.636719 216.121094 154.496094 C 220.394531 146.511719 226.527344 136.109375 236.140625 126.417969 C 247.851562 114.609375 262.78125 106.546875 277.09375 104.300781 C 278.757812 104.039062 280.496094 103.839844 282.253906 103.707031 C 289.980469 103.117188 297.535156 103.8125 304.832031 104.492188 C 306.441406 104.644531 308.039062 104.792969 309.628906 104.921875 C 319.21875 105.730469 330.320312 106.230469 340.65625 101.929688 C 350.105469 98.007812 359.679688 88.078125 359.6875 76.679688 L 360.140625 76.679688 C 360.132812 81.4375 358.496094 85.949219 355.90625 89.878906 Z M 355.90625 89.878906 " fill-opacity="1" fill-rule="nonzero"/></g></g></g><g clip-path="url(#3d6d17710b)"><g clip-path="url(#c396a3d9b6)"><g clip-path="url(#c56a0be937)"><path fill="#d9d9d9" d="M 352.914062 92.972656 C 349.199219 98.609375 343.628906 102.988281 338.34375 105.371094 C 328.15625 109.972656 317.300781 109.949219 307.925781 109.566406 C 306.121094 109.488281 304.257812 109.394531 302.460938 109.300781 C 295.554688 108.941406 288.421875 108.570312 281.125 109.265625 C 279.40625 109.429688 277.710938 109.648438 276.085938 109.925781 C 262.261719 112.265625 247.480469 119.871094 235.539062 130.792969 C 226.007812 139.507812 219.597656 148.558594 214.589844 156.261719 C 213.929688 157.28125 213.28125 158.289062 212.652344 159.289062 C 211.574219 160.996094 210.53125 162.679688 209.507812 164.34375 C 205.128906 171.4375 200.992188 178.136719 195.21875 184.632812 C 185.789062 195.1875 174.8125 200.871094 162.601562 201.527344 C 161.292969 201.601562 159.933594 201.609375 158.566406 201.554688 C 145.726562 201.03125 132.90625 195.203125 122.054688 189.574219 C 119.148438 188.054688 116.261719 186.511719 113.476562 185.019531 C 102.527344 179.167969 92.1875 173.640625 81.03125 169.738281 C 70.394531 166.003906 60.226562 164.308594 50.816406 164.695312 C 45.59375 164.910156 40.5 165.765625 35.671875 167.238281 C 20.527344 171.894531 5.621094 184.023438 -5.265625 200.539062 C -5.332031 200.636719 -5.394531 200.730469 -5.453125 200.824219 C -15.851562 216.714844 -22.136719 235.011719 -27.210938 250.90625 L -27.640625 250.769531 C -22.554688 234.84375 -16.257812 216.519531 -5.832031 200.578125 C -5.769531 200.484375 -5.703125 200.386719 -5.640625 200.289062 C 5.304688 183.6875 20.296875 171.488281 35.542969 166.804688 C 40.40625 165.320312 45.539062 164.457031 50.796875 164.238281 C 60.273438 163.847656 70.492188 165.550781 81.179688 169.304688 C 92.371094 173.222656 102.726562 178.753906 113.6875 184.617188 C 116.476562 186.109375 119.359375 187.648438 122.265625 189.167969 C 133.070312 194.773438 145.832031 200.574219 158.589844 201.101562 C 159.9375 201.152344 161.28125 201.140625 162.578125 201.070312 C 174.667969 200.417969 185.535156 194.789062 194.886719 184.328125 C 200.636719 177.859375 204.765625 171.175781 209.128906 164.097656 C 210.15625 162.433594 211.199219 160.746094 212.277344 159.035156 C 212.910156 158.035156 213.554688 157.027344 214.21875 156.007812 C 219.25 148.273438 225.671875 139.195312 235.238281 130.449219 C 247.242188 119.472656 262.109375 111.828125 276.019531 109.472656 C 277.652344 109.199219 279.355469 108.972656 281.085938 108.808594 C 288.414062 108.105469 295.566406 108.480469 302.488281 108.839844 C 304.289062 108.933594 306.144531 109.03125 307.949219 109.105469 C 317.273438 109.492188 328.0625 109.515625 338.160156 104.953125 C 346.949219 100.992188 356.53125 91.4375 356.800781 79.824219 L 357.253906 79.835938 C 357.140625 84.640625 355.464844 89.097656 352.917969 92.96875 Z M 352.914062 92.972656 " fill-opacity="1" fill-rule="nonzero"/></g></g></g><g clip-path="url(#cc3409fea9)"><g clip-path="url(#16f6a9e21c)"><g clip-path="url(#82262b841e)"><path fill="#d9d9d9" d="M 349.871094 96.011719 C 346.222656 101.546875 340.886719 105.933594 335.855469 108.390625 C 326.90625 112.78125 317.554688 113.707031 306.265625 113.746094 C 304.195312 113.753906 302.066406 113.734375 300 113.714844 C 293.515625 113.644531 286.8125 113.574219 279.964844 114.367188 C 278.269531 114.566406 276.605469 114.808594 275.015625 115.097656 C 256.660156 118.433594 241.828125 128.898438 234.617188 134.839844 C 225.246094 142.5625 218.53125 150.445312 212.667969 157.804688 C 211.953125 158.703125 211.253906 159.59375 210.570312 160.46875 C 209.648438 161.652344 208.75 162.8125 207.863281 163.960938 C 202.890625 170.410156 198.1875 176.5 191.867188 182.332031 C 181.796875 191.566406 171.101562 196.226562 159.167969 196.585938 C 157.878906 196.625 156.542969 196.609375 155.199219 196.539062 C 142.316406 195.816406 129.78125 190.359375 119.035156 185.296875 C 117.117188 184.390625 115.222656 183.480469 113.34375 182.582031 C 101.40625 176.859375 90.132812 171.457031 78.089844 167.984375 C 67.570312 164.933594 57.574219 163.789062 48.390625 164.574219 C 43.300781 165.007812 38.339844 166.035156 33.648438 167.636719 C 18.71875 172.75 4.523438 184.632812 -6.339844 201.109375 C -6.386719 201.183594 -6.429688 201.25 -6.476562 201.320312 C -16.722656 216.945312 -23.15625 234.890625 -28.382812 250.484375 L -28.8125 250.34375 C -23.578125 234.71875 -17.128906 216.742188 -6.855469 201.070312 C -6.808594 201 -6.761719 200.929688 -6.71875 200.859375 C 4.199219 184.300781 18.472656 172.355469 33.5 167.207031 C 38.222656 165.597656 43.222656 164.5625 48.347656 164.125 C 57.589844 163.332031 67.640625 164.488281 78.214844 167.554688 C 90.289062 171.039062 101.582031 176.449219 113.535156 182.175781 C 115.414062 183.078125 117.308594 183.988281 119.226562 184.894531 C 129.929688 189.9375 142.417969 195.375 155.21875 196.09375 C 156.550781 196.164062 157.871094 196.183594 159.148438 196.140625 C 170.972656 195.785156 181.574219 191.164062 191.554688 182 C 197.847656 176.195312 202.539062 170.117188 207.5 163.6875 C 208.386719 162.535156 209.285156 161.371094 210.207031 160.191406 C 210.890625 159.316406 211.589844 158.425781 212.304688 157.53125 C 218.183594 150.148438 224.917969 142.242188 234.324219 134.496094 C 241.566406 128.527344 256.464844 118.007812 274.921875 114.65625 C 276.523438 114.367188 278.195312 114.121094 279.902344 113.921875 C 286.777344 113.128906 293.5 113.199219 299.992188 113.265625 C 302.050781 113.289062 304.1875 113.3125 306.25 113.300781 C 317.476562 113.261719 326.769531 112.34375 335.644531 107.992188 C 344.070312 103.875 353.378906 94.289062 353.898438 82.980469 L 354.347656 83 C 354.128906 87.726562 352.402344 92.15625 349.855469 96.019531 Z M 349.871094 96.011719 " fill-opacity="1" fill-rule="nonzero"/></g></g></g><g clip-path="url(#02e5e90aea)"><g clip-path="url(#a860390223)"><g clip-path="url(#5e8cb09f89)"><path fill="#d9d9d9" d="M 346.824219 99.171875 C 343.300781 104.519531 338.261719 108.820312 333.363281 111.414062 C 324.101562 116.335938 314.066406 117.457031 304.597656 117.933594 C 302.222656 118.054688 299.867188 118.128906 297.375 118.210938 C 291.367188 118.402344 285.152344 118.605469 278.800781 119.472656 C 277.132812 119.699219 275.496094 119.964844 273.933594 120.265625 C 256.199219 123.714844 241.113281 133.417969 233.695312 138.886719 C 224.34375 145.785156 217.226562 152.777344 210.738281 159.351562 C 209.972656 160.132812 209.21875 160.898438 208.476562 161.648438 L 207.066406 163.09375 C 200.964844 169.34375 195.691406 174.742188 188.503906 180.035156 C 181.742188 184.980469 170.988281 191.566406 155.726562 191.652344 C 154.464844 191.664062 153.152344 191.617188 151.828125 191.527344 C 139.617188 190.648438 127.441406 185.855469 116.019531 181.023438 L 114.148438 180.230469 C 100.886719 174.566406 88.359375 169.214844 75.160156 166.238281 C 64.761719 163.875 54.941406 163.273438 45.96875 164.460938 C 41.011719 165.113281 36.183594 166.3125 31.628906 168.035156 C 17.128906 173.539062 3.265625 185.496094 -7.421875 201.707031 L -7.496094 201.820312 C -17.585938 217.171875 -24.167969 234.773438 -29.546875 250.070312 L -29.96875 249.917969 C -24.582031 234.601562 -17.988281 216.964844 -7.871094 201.570312 C 2.886719 185.21875 16.847656 173.164062 31.46875 167.617188 C 36.058594 165.882812 40.917969 164.671875 45.914062 164.019531 C 54.9375 162.828125 64.8125 163.429688 75.261719 165.804688 C 88.503906 168.792969 101.046875 174.152344 114.332031 179.820312 L 116.199219 180.617188 C 127.589844 185.4375 139.722656 190.210938 151.867188 191.085938 C 153.183594 191.175781 154.480469 191.214844 155.734375 191.207031 C 170.863281 191.125 181.535156 184.585938 188.25 179.675781 C 195.40625 174.410156 200.664062 169.023438 206.757812 162.789062 L 208.167969 161.339844 C 208.90625 160.589844 209.65625 159.824219 210.429688 159.046875 C 216.929688 152.460938 224.066406 145.453125 233.441406 138.535156 C 240.886719 133.039062 256.039062 123.300781 273.859375 119.835938 C 275.425781 119.53125 277.070312 119.257812 278.75 119.035156 C 285.121094 118.167969 291.347656 117.964844 297.371094 117.769531 C 299.855469 117.691406 302.207031 117.613281 304.582031 117.492188 C 313.996094 117.019531 323.972656 115.90625 333.160156 111.027344 C 341.496094 106.609375 350.25 97.199219 351.023438 86.132812 L 351.46875 86.164062 C 351.136719 90.886719 349.382812 95.308594 346.828125 99.179688 Z M 346.824219 99.171875 " fill-opacity="1" fill-rule="nonzero"/></g></g></g><g clip-path="url(#b6275e5c22)"><g clip-path="url(#b684f6c930)"><g clip-path="url(#a419f8a0c6)"><path fill="#d9d9d9" d="M 343.695312 102.449219 C 340.566406 107.195312 336.136719 111.414062 330.875 114.433594 C 321.8125 119.652344 312.09375 121.210938 302.933594 122.117188 C 300.183594 122.390625 297.449219 122.59375 294.550781 122.8125 C 289.074219 123.226562 283.417969 123.65625 277.644531 124.570312 C 276.003906 124.824219 274.394531 125.117188 272.863281 125.4375 C 256.679688 128.804688 242.132812 136.8125 232.777344 142.9375 C 224.035156 148.660156 217.078125 154.253906 210.941406 159.191406 C 210.222656 159.769531 209.511719 160.339844 208.8125 160.902344 C 207.988281 161.5625 207.183594 162.207031 206.390625 162.832031 C 199.300781 168.492188 193.234375 173.175781 185.152344 177.734375 C 177.417969 182.0625 166.691406 186.992188 152.300781 186.714844 C 151.058594 186.695312 149.769531 186.625 148.464844 186.515625 C 136.15625 185.433594 123.910156 180.839844 113.105469 176.789062 L 113.003906 176.746094 C 98.699219 171.332031 85.757812 166.675781 72.230469 164.480469 C 61.964844 162.800781 52.316406 162.753906 43.550781 164.335938 C 38.722656 165.207031 34.035156 166.582031 29.609375 168.425781 C 15.542969 174.324219 2.003906 186.355469 -8.511719 202.308594 C -18.453125 217.390625 -25.183594 234.644531 -30.710938 249.640625 L -31.132812 249.484375 C -25.59375 234.472656 -18.847656 217.183594 -8.882812 202.0625 C 1.679688 186.035156 15.292969 173.941406 29.441406 168.011719 C 33.898438 166.15625 38.617188 164.769531 43.476562 163.898438 C 52.289062 162.304688 61.988281 162.355469 72.308594 164.042969 C 85.875 166.246094 98.839844 170.914062 113.167969 176.332031 L 113.269531 176.375 C 124.046875 180.414062 136.261719 184.996094 148.507812 186.074219 C 149.800781 186.183594 151.082031 186.253906 152.3125 186.273438 C 166.59375 186.546875 177.246094 181.648438 184.9375 177.347656 C 192.988281 172.808594 199.039062 168.128906 206.113281 162.488281 C 206.90625 161.855469 207.710938 161.21875 208.53125 160.558594 C 209.230469 160 209.941406 159.429688 210.660156 158.847656 C 216.804688 153.90625 223.769531 148.304688 232.535156 142.570312 C 241.921875 136.429688 256.523438 128.390625 272.773438 125.007812 C 274.316406 124.6875 275.929688 124.394531 277.578125 124.140625 C 283.367188 123.222656 289.039062 122.792969 294.519531 122.378906 C 297.414062 122.15625 300.144531 121.953125 302.894531 121.679688 C 312 120.777344 321.667969 119.230469 330.65625 114.058594 C 340.378906 108.476562 347.234375 98.75 348.128906 89.277344 L 348.578125 89.320312 C 348.15625 93.792969 346.421875 98.324219 343.699219 102.460938 Z M 343.695312 102.449219 " fill-opacity="1" fill-rule="nonzero"/></g></g></g><g clip-path="url(#82801064d5)"><g clip-path="url(#b87e20a0d0)"><g clip-path="url(#ea32eb8e20)"><path fill="#d9d9d9" d="M 340.617188 105.566406 C 337.5625 110.199219 333.335938 114.378906 328.390625 117.457031 C 319.496094 122.996094 309.695312 125.035156 301.273438 126.300781 C 298.0625 126.785156 294.851562 127.171875 291.453125 127.574219 C 286.601562 128.15625 281.589844 128.75 276.488281 129.675781 C 274.84375 129.96875 273.304688 130.277344 271.792969 130.609375 C 259.433594 133.351562 245.996094 138.859375 231.855469 146.984375 C 225.230469 150.785156 219.417969 154.492188 214.296875 157.765625 C 211.6875 159.425781 209.21875 161 206.875 162.445312 C 205.996094 162.980469 205.140625 163.503906 204.292969 164.007812 C 195.921875 169.039062 189.402344 172.347656 181.785156 175.425781 C 172.648438 179.085938 162.335938 182.382812 148.867188 181.773438 C 147.652344 181.722656 146.382812 181.628906 145.097656 181.5 C 133.894531 180.324219 122.5625 176.601562 112.5625 173.316406 C 111.695312 173.03125 110.835938 172.75 109.988281 172.472656 C 95.082031 167.550781 82.457031 164.011719 69.300781 162.722656 C 59.179688 161.722656 49.703125 162.222656 41.128906 164.210938 C 36.4375 165.300781 31.882812 166.847656 27.589844 168.820312 C 13.988281 175.085938 0.808594 187.15625 -9.53125 202.800781 L -9.609375 202.917969 C -19.347656 217.695312 -26.210938 234.5625 -31.882812 249.214844 L -32.300781 249.050781 C -26.625 234.375 -19.746094 217.484375 -9.984375 202.671875 L -9.90625 202.550781 C 0.476562 186.839844 13.726562 174.714844 27.402344 168.410156 C 31.722656 166.425781 36.308594 164.867188 41.03125 163.773438 C 49.648438 161.773438 59.175781 161.269531 69.34375 162.277344 C 82.542969 163.566406 95.195312 167.117188 110.128906 172.046875 C 110.976562 172.324219 111.835938 172.605469 112.703125 172.894531 C 122.679688 176.171875 133.984375 179.882812 145.140625 181.054688 C 146.417969 181.183594 147.675781 181.277344 148.886719 181.328125 C 162.269531 181.9375 172.53125 178.652344 181.617188 175.015625 C 189.210938 171.945312 195.71875 168.648438 204.0625 163.628906 C 204.90625 163.125 205.765625 162.605469 206.636719 162.066406 C 208.980469 160.628906 211.445312 159.058594 214.050781 157.390625 C 219.179688 154.121094 224.992188 150.410156 231.628906 146.601562 C 245.804688 138.457031 259.285156 132.929688 271.691406 130.175781 C 273.210938 129.839844 274.75 129.53125 276.402344 129.238281 C 281.519531 128.316406 286.542969 127.714844 291.398438 127.132812 C 294.792969 126.726562 298.003906 126.34375 301.203125 125.863281 C 309.574219 124.601562 319.324219 122.578125 328.148438 117.078125 C 337.417969 111.316406 344.128906 101.636719 345.234375 92.421875 L 345.679688 92.472656 C 345.148438 96.890625 343.351562 101.417969 340.609375 105.574219 Z M 340.617188 105.566406 " fill-opacity="1" fill-rule="nonzero"/></g></g></g><g clip-path="url(#f64731c3f1)"><g clip-path="url(#227f8b823f)"><g clip-path="url(#fa02396a95)"><path fill="#d9d9d9" d="M 337.550781 108.753906 C 334.597656 113.234375 330.59375 117.3125 325.898438 120.472656 C 317.183594 126.347656 307.71875 128.832031 299.609375 130.484375 C 295.820312 131.257812 292 131.878906 287.953125 132.539062 C 283.851562 133.210938 279.617188 133.898438 275.316406 134.773438 C 273.695312 135.101562 272.191406 135.429688 270.710938 135.785156 C 259.03125 138.542969 246.015625 143.53125 230.925781 151.035156 C 227.21875 152.878906 223.785156 154.636719 220.464844 156.335938 C 214.65625 159.304688 209.644531 161.871094 204.929688 163.992188 C 204 164.414062 203.078125 164.8125 202.1875 165.191406 C 194.546875 168.460938 187.660156 170.761719 178.414062 173.125 C 170.484375 175.128906 159.625 177.867188 145.429688 176.84375 C 144.234375 176.761719 142.988281 176.640625 141.722656 176.488281 C 131.761719 175.273438 121.972656 172.480469 112.503906 169.773438 C 110.628906 169.234375 108.777344 168.707031 106.96875 168.203125 C 90.320312 163.515625 78.179688 161.351562 66.363281 160.976562 C 56.398438 160.648438 47.09375 161.695312 38.707031 164.097656 C 34.148438 165.394531 29.726562 167.121094 25.566406 169.214844 C 8.734375 177.726562 -3.363281 192.449219 -10.550781 203.296875 C -10.613281 203.390625 -10.675781 203.484375 -10.738281 203.578125 C -20.257812 218.023438 -26.980469 233.832031 -33.050781 248.792969 L -33.46875 248.625 C -27.351562 233.546875 -20.578125 217.609375 -10.925781 203.046875 C -3.710938 192.15625 8.445312 177.371094 25.363281 168.816406 C 29.546875 166.707031 33.996094 164.972656 38.582031 163.664062 C 47.015625 161.25 56.363281 160.191406 66.375 160.527344 C 78.226562 160.90625 90.402344 163.070312 107.085938 167.769531 C 108.902344 168.273438 110.75 168.804688 112.628906 169.335938 C 122.082031 172.039062 131.847656 174.828125 141.777344 176.039062 C 143.03125 176.1875 144.269531 176.308594 145.460938 176.394531 C 159.589844 177.417969 170.40625 174.683594 178.304688 172.691406 C 187.523438 170.332031 194.394531 168.042969 202.011719 164.777344 C 202.902344 164.402344 203.820312 163.996094 204.746094 163.578125 C 209.449219 161.464844 214.457031 158.898438 220.261719 155.929688 C 223.582031 154.234375 227.015625 152.472656 230.726562 150.628906 C 245.847656 143.109375 258.890625 138.109375 270.605469 135.34375 C 272.09375 134.992188 273.601562 134.664062 275.230469 134.335938 C 279.535156 133.460938 283.777344 132.765625 287.882812 132.101562 C 291.921875 131.4375 295.738281 130.820312 299.519531 130.046875 C 307.582031 128.402344 316.992188 125.9375 325.648438 120.101562 C 334.613281 114.074219 341.011719 104.671875 342.347656 95.5625 L 342.792969 95.628906 C 342.136719 100.078125 340.300781 104.59375 337.550781 108.761719 Z M 337.550781 108.753906 " fill-opacity="1" fill-rule="nonzero"/></g></g></g><g clip-path="url(#1eaffef097)"><g clip-path="url(#9c900c0716)"><g clip-path="url(#2c9bab2a1e)"><path fill="#d9d9d9" d="M 334.46875 111.976562 C 331.621094 116.292969 327.847656 120.265625 323.414062 123.496094 C 314.8125 129.769531 305.285156 132.761719 297.949219 134.667969 C 293.414062 135.847656 288.792969 136.800781 283.894531 137.804688 C 280.730469 138.457031 277.460938 139.128906 274.164062 139.875 C 272.554688 140.238281 271.074219 140.59375 269.640625 140.953125 C 255.523438 144.5 241.78125 150.105469 230.007812 155.078125 C 220.230469 159.207031 210.996094 163.109375 202.996094 165.527344 C 202.019531 165.820312 201.042969 166.105469 200.089844 166.359375 C 191.21875 168.796875 183.183594 169.859375 175.050781 170.8125 L 173.242188 171.019531 C 164.996094 171.976562 154.730469 173.175781 141.996094 171.898438 C 140.828125 171.785156 139.605469 171.636719 138.359375 171.464844 C 129.867188 170.28125 121.398438 168.183594 113.210938 166.15625 C 110 165.359375 106.964844 164.609375 103.957031 163.917969 C 88.367188 160.28125 75.492188 158.789062 63.433594 159.214844 C 53.640625 159.542969 44.503906 161.144531 36.292969 163.96875 C 31.871094 165.484375 27.585938 167.378906 23.554688 169.605469 C 10.710938 176.714844 -1.429688 188.535156 -11.566406 203.785156 C -21.027344 218.007812 -27.941406 233.613281 -34.214844 248.367188 L -34.625 248.191406 C -28.347656 233.421875 -21.421875 217.796875 -11.941406 203.539062 C -1.765625 188.226562 10.429688 176.355469 23.335938 169.214844 C 27.394531 166.976562 31.703125 165.070312 36.148438 163.546875 C 44.40625 160.710938 53.582031 159.101562 63.421875 158.769531 C 75.515625 158.34375 88.425781 159.84375 104.058594 163.484375 C 107.074219 164.175781 110.109375 164.929688 113.324219 165.722656 C 121.5 167.746094 129.953125 169.84375 138.425781 171.023438 C 139.667969 171.199219 140.886719 171.335938 142.046875 171.453125 C 154.738281 172.722656 164.972656 171.53125 173.195312 170.574219 L 175.003906 170.367188 C 183.117188 169.410156 191.132812 168.355469 199.980469 165.925781 C 200.921875 165.671875 201.898438 165.390625 202.871094 165.09375 C 210.84375 162.679688 220.066406 158.789062 229.835938 154.664062 C 241.621094 149.683594 255.382812 144.066406 269.53125 140.511719 C 270.96875 140.152344 272.453125 139.796875 274.0625 139.433594 C 277.363281 138.683594 280.636719 138.007812 283.800781 137.355469 C 288.691406 136.347656 293.304688 135.402344 297.832031 134.222656 C 305.128906 132.328125 314.601562 129.351562 323.144531 123.125 C 331.789062 116.832031 337.890625 107.703125 339.453125 98.699219 L 339.898438 98.773438 C 339.117188 103.265625 337.226562 107.78125 334.46875 111.96875 Z M 334.46875 111.976562 " fill-opacity="1" fill-rule="nonzero"/></g></g></g><g clip-path="url(#b5db8ed0f3)"><g clip-path="url(#7caf4d0416)"><g clip-path="url(#ad350395f9)"><path fill="#d9d9d9" d="M 331.3125 115.234375 C 328.5625 119.410156 325.019531 123.289062 320.917969 126.515625 C 314.332031 131.714844 306.734375 135.519531 296.28125 138.855469 C 290.742188 140.621094 285.019531 142.027344 278.953125 143.511719 C 276.992188 143.992188 275.007812 144.476562 273 144.984375 C 271.367188 145.394531 269.914062 145.769531 268.558594 146.132812 C 257.113281 149.183594 245.578125 153.28125 235.402344 156.898438 C 233.242188 157.667969 231.132812 158.414062 229.078125 159.136719 C 216.757812 163.449219 208.378906 165.828125 201.054688 167.074219 C 200.035156 167.25 199.003906 167.40625 197.988281 167.542969 C 189.375 168.726562 181.753906 168.636719 172.929688 168.527344 L 171.679688 168.511719 C 170.03125 168.488281 168.320312 168.476562 166.546875 168.46875 C 158.5625 168.433594 149.511719 168.390625 138.558594 166.972656 C 137.417969 166.832031 136.210938 166.65625 134.980469 166.464844 C 128.332031 165.417969 121.621094 163.96875 115.136719 162.566406 C 110.195312 161.5 105.527344 160.492188 100.9375 159.660156 C 86.050781 156.914062 72.824219 156.199219 60.503906 157.476562 C 50.890625 158.453125 41.929688 160.605469 33.875 163.863281 C 29.59375 165.589844 25.445312 167.660156 21.53125 170.015625 C 9.175781 177.484375 -2.621094 189.339844 -12.582031 204.292969 C -21.886719 218.246094 -28.9375 233.511719 -35.378906 247.957031 L -35.789062 247.773438 C -29.34375 233.308594 -22.265625 218.011719 -12.957031 204.042969 C -2.957031 189.035156 8.890625 177.136719 21.300781 169.628906 C 25.234375 167.261719 29.40625 165.183594 33.707031 163.445312 C 41.804688 160.175781 50.804688 158.011719 60.460938 157.027344 C 72.824219 155.75 86.09375 156.464844 101.023438 159.214844 C 105.625 160.050781 110.296875 161.058594 115.238281 162.125 C 121.722656 163.527344 128.421875 164.976562 135.058594 166.019531 C 136.285156 166.210938 137.484375 166.378906 138.621094 166.527344 C 149.550781 167.933594 158.585938 167.980469 166.554688 168.019531 C 168.332031 168.027344 170.039062 168.035156 171.691406 168.058594 L 172.941406 168.074219 C 181.75 168.179688 189.351562 168.273438 197.929688 167.097656 C 198.941406 166.960938 199.964844 166.804688 200.980469 166.628906 C 208.28125 165.386719 216.640625 163.015625 228.933594 158.710938 C 230.984375 157.996094 233.09375 157.242188 235.253906 156.476562 C 245.4375 152.859375 256.984375 148.757812 268.449219 145.703125 C 269.800781 145.339844 271.253906 144.96875 272.890625 144.554688 C 274.894531 144.046875 276.878906 143.5625 278.84375 143.078125 C 284.902344 141.59375 290.621094 140.191406 296.148438 138.429688 C 306.539062 135.117188 314.097656 131.332031 320.640625 126.171875 C 328.835938 119.722656 334.785156 110.632812 336.566406 101.863281 L 337.007812 101.953125 C 336.097656 106.429688 334.117188 110.988281 331.3125 115.246094 Z M 331.3125 115.234375 " fill-opacity="1" fill-rule="nonzero"/></g></g></g><g clip-path="url(#959abbabba)"><g clip-path="url(#b7e99d3fcb)"><g clip-path="url(#818f4b7565)"><path fill="#d9d9d9" d="M 328.15625 118.570312 C 325.53125 122.550781 322.238281 126.289062 318.429688 129.535156 C 312.042969 134.988281 304.476562 139.277344 294.617188 143.03125 C 287.660156 145.679688 280.328125 147.71875 272.558594 149.882812 L 271.839844 150.082031 C 270.402344 150.480469 268.949219 150.886719 267.488281 151.296875 C 260.59375 153.25 253.652344 155.410156 246.941406 157.5 C 240.332031 159.558594 234.089844 161.503906 228.152344 163.171875 C 216.453125 166.457031 207.226562 168.179688 199.113281 168.59375 C 198.039062 168.648438 196.953125 168.683594 195.890625 168.699219 C 187.644531 168.8125 180.0625 167.78125 172.046875 166.6875 C 170.816406 166.519531 169.574219 166.351562 168.316406 166.183594 C 164.859375 165.71875 161.175781 165.308594 157.273438 164.875 C 150.761719 164.15625 143.382812 163.335938 135.125 162.023438 C 134.015625 161.847656 132.871094 161.660156 131.613281 161.441406 C 127.515625 160.714844 123.347656 159.902344 119.3125 159.117188 C 112.183594 157.722656 104.808594 156.285156 97.917969 155.367188 C 83.429688 153.410156 70.234375 153.519531 57.570312 155.703125 C 48.152344 157.316406 39.363281 160.019531 31.453125 163.726562 C 27.316406 165.660156 23.300781 167.90625 19.515625 170.398438 C 7.648438 178.222656 -3.800781 190.113281 -13.601562 204.777344 C -22.71875 218.417969 -29.9375 233.375 -36.546875 247.523438 L -36.957031 247.335938 C -30.335938 233.171875 -23.09375 218.195312 -13.976562 204.527344 C -4.148438 189.8125 7.34375 177.882812 19.265625 170.023438 C 23.070312 167.519531 27.105469 165.269531 31.261719 163.320312 C 39.210938 159.597656 48.039062 156.882812 57.496094 155.261719 C 70.207031 153.070312 83.449219 152.957031 97.980469 154.921875 C 104.882812 155.835938 112.265625 157.277344 119.402344 158.667969 C 123.433594 159.457031 127.601562 160.269531 131.699219 160.992188 C 132.949219 161.210938 134.09375 161.402344 135.199219 161.578125 C 143.449219 162.882812 150.824219 163.703125 157.328125 164.425781 C 161.230469 164.859375 164.917969 165.269531 168.382812 165.738281 C 169.640625 165.902344 170.886719 166.074219 172.109375 166.238281 C 180.113281 167.328125 187.671875 168.359375 195.886719 168.246094 C 196.945312 168.230469 198.03125 168.195312 199.09375 168.144531 C 207.171875 167.730469 216.367188 166.015625 228.035156 162.738281 C 233.960938 161.066406 240.203125 159.125 246.8125 157.066406 C 253.523438 154.972656 260.46875 152.808594 267.367188 150.863281 C 268.832031 150.453125 270.28125 150.046875 271.71875 149.648438 L 272.4375 149.449219 C 280.195312 147.289062 287.523438 145.25 294.457031 142.613281 C 304.265625 138.875 311.789062 134.613281 318.136719 129.191406 C 325.992188 122.496094 331.65625 113.675781 333.675781 105 L 334.113281 105.101562 C 333.050781 109.664062 330.996094 114.261719 328.15625 118.570312 Z M 328.15625 118.570312 " fill-opacity="1" fill-rule="nonzero"/></g></g></g><g clip-path="url(#cef6bb5138)"><g clip-path="url(#7710650464)"><g clip-path="url(#d6898542d5)"><path fill="#d9d9d9" d="M 324.898438 122.015625 C 322.40625 125.796875 319.375 129.382812 315.945312 132.550781 C 309.667969 138.359375 302.363281 143.019531 292.960938 147.210938 C 285.644531 150.476562 277.933594 152.972656 270.683594 155.183594 C 269.277344 155.609375 267.851562 156.039062 266.417969 156.46875 L 264.363281 157.085938 C 251.828125 160.84375 238.863281 164.730469 227.230469 167.21875 C 215.738281 169.671875 205.910156 170.628906 197.179688 170.125 C 196.050781 170.0625 194.914062 169.972656 193.792969 169.859375 C 185.507812 169.046875 177.929688 167.136719 169.90625 165.105469 C 168.277344 164.691406 166.628906 164.273438 164.957031 163.863281 C 156.5625 161.78125 147.1875 160.007812 136.332031 157.960938 L 131.691406 157.082031 C 130.546875 156.871094 129.402344 156.648438 128.246094 156.425781 C 117.136719 154.246094 105.644531 151.988281 94.90625 151.089844 C 80.730469 149.867188 67.558594 150.800781 54.636719 153.941406 C 45.425781 156.171875 36.8125 159.421875 29.03125 163.601562 C 25.042969 165.738281 21.15625 168.15625 17.492188 170.785156 C 5.957031 179.074219 -4.847656 190.675781 -14.625 205.265625 C -23.546875 218.589844 -30.933594 233.242188 -37.71875 247.09375 L -38.121094 246.898438 C -31.328125 233.027344 -23.945312 218.378906 -14.996094 205.015625 C -5.1875 190.378906 5.648438 178.738281 17.226562 170.417969 C 20.910156 167.777344 24.808594 165.347656 28.816406 163.199219 C 36.632812 159.007812 45.285156 155.746094 54.53125 153.5 C 67.5 150.347656 80.71875 149.414062 94.941406 150.636719 C 105.703125 151.542969 117.207031 153.796875 128.328125 155.976562 C 129.484375 156.203125 130.628906 156.421875 131.769531 156.636719 L 136.410156 157.511719 C 147.273438 159.558594 156.652344 161.332031 165.0625 163.417969 C 166.734375 163.832031 168.382812 164.246094 170.015625 164.660156 C 178.019531 166.679688 185.582031 168.59375 193.835938 169.402344 C 194.953125 169.515625 196.085938 169.601562 197.207031 169.667969 C 205.894531 170.164062 215.683594 169.214844 227.136719 166.773438 C 238.753906 164.285156 251.703125 160.402344 264.230469 156.648438 L 266.285156 156.03125 C 267.714844 155.601562 269.136719 155.175781 270.546875 154.746094 C 277.777344 152.539062 285.476562 150.046875 292.769531 146.796875 C 302.132812 142.625 309.394531 137.988281 315.636719 132.21875 C 323.03125 125.390625 328.550781 116.613281 330.785156 108.136719 L 331.222656 108.253906 C 330.007812 112.871094 327.824219 117.578125 324.902344 122.011719 Z M 324.898438 122.015625 " fill-opacity="1" fill-rule="nonzero"/></g></g></g><g clip-path="url(#3fd2816121)"><g clip-path="url(#d0e055d4f3)"><g clip-path="url(#9a521067c5)"><path fill="#d9d9d9" d="M 321.601562 125.589844 C 319.277344 129.113281 316.535156 132.480469 313.457031 135.570312 C 307.367188 141.675781 300.121094 146.851562 291.292969 151.390625 C 285.140625 154.5625 278.222656 157.386719 269.519531 160.285156 C 268.207031 160.722656 266.835938 161.167969 265.339844 161.640625 C 250.101562 166.46875 237.332031 169.617188 226.304688 171.265625 C 214.910156 172.960938 204.460938 173.09375 195.242188 171.65625 C 194.070312 171.476562 192.875 171.257812 191.695312 171.023438 C 183.148438 169.324219 175.355469 166.503906 167.109375 163.523438 C 165.285156 162.867188 163.453125 162.203125 161.597656 161.546875 C 151.4375 157.945312 140.527344 154.871094 128.253906 152.152344 C 127.136719 151.90625 126.011719 151.660156 124.875 151.417969 C 112.09375 148.65625 101.304688 147.152344 91.890625 146.820312 C 78.152344 146.316406 64.628906 148.125 51.707031 152.195312 C 42.710938 155.019531 34.265625 158.820312 26.609375 163.488281 C 22.777344 165.824219 19.027344 168.410156 15.472656 171.191406 C 4.457031 179.8125 -6.007812 191.441406 -15.636719 205.773438 C -24.382812 218.777344 -31.621094 232.550781 -38.882812 246.683594 L -39.28125 246.480469 C -32.015625 232.328125 -24.769531 218.546875 -16.011719 205.519531 C -6.355469 191.15625 4.144531 179.488281 15.199219 170.839844 C 18.765625 168.050781 22.53125 165.453125 26.378906 163.109375 C 34.070312 158.421875 42.546875 154.609375 51.574219 151.773438 C 64.550781 147.6875 78.121094 145.875 91.910156 146.382812 C 101.351562 146.710938 112.171875 148.21875 124.976562 150.988281 C 126.109375 151.230469 127.238281 151.476562 128.359375 151.726562 C 140.652344 154.445312 151.578125 157.527344 161.757812 161.132812 C 163.613281 161.789062 165.449219 162.453125 167.273438 163.109375 C 175.503906 166.085938 183.28125 168.898438 191.796875 170.59375 C 192.96875 170.832031 194.15625 171.042969 195.324219 171.222656 C 204.496094 172.652344 214.898438 172.523438 226.25 170.832031 C 237.253906 169.191406 250 166.046875 265.214844 161.222656 C 266.710938 160.75 268.078125 160.304688 269.386719 159.871094 C 278.070312 156.980469 284.964844 154.160156 291.097656 151.003906 C 299.878906 146.480469 307.089844 141.335938 313.144531 135.261719 C 320.171875 128.222656 325.417969 119.707031 327.90625 111.296875 L 328.339844 111.425781 C 326.921875 116.214844 324.617188 121.035156 321.613281 125.605469 Z M 321.601562 125.589844 " fill-opacity="1" fill-rule="nonzero"/></g></g></g><g clip-path="url(#4176177038)"><g clip-path="url(#037c464661)"><g clip-path="url(#83cf57cf5f)"><path fill="#d9d9d9" d="M 318.183594 129.371094 C 316.074219 132.570312 313.65625 135.664062 310.964844 138.585938 C 304.984375 145.101562 298.003906 150.65625 289.628906 155.570312 C 283.328125 159.265625 276.375 162.476562 268.363281 165.382812 C 267.03125 165.863281 265.652344 166.34375 264.265625 166.808594 C 250.757812 171.335938 237.3125 174.277344 225.378906 175.304688 C 213.867188 176.296875 203.074219 175.578125 193.3125 173.179688 C 192.09375 172.878906 190.84375 172.542969 189.609375 172.179688 C 180.652344 169.570312 172.511719 165.804688 163.890625 161.816406 C 162.019531 160.953125 160.136719 160.082031 158.242188 159.222656 C 146.3125 153.796875 135.691406 149.980469 124.820312 147.210938 C 123.722656 146.929688 122.621094 146.660156 121.511719 146.398438 C 110.097656 143.691406 99.117188 142.394531 88.878906 142.539062 C 75.320312 142.710938 61.828125 145.367188 48.777344 150.429688 C 40.003906 153.828125 31.730469 158.179688 24.191406 163.359375 C 20.511719 165.882812 16.902344 168.648438 13.453125 171.574219 C 2.976562 180.492188 -7.152344 192.164062 -16.65625 206.253906 C -25.183594 218.898438 -32.585938 232.386719 -40.046875 246.25 L -40.445312 246.035156 C -32.976562 232.164062 -25.566406 218.664062 -17.03125 206 C -7.507812 191.878906 2.648438 180.175781 13.160156 171.226562 C 16.617188 168.289062 20.242188 165.515625 23.933594 162.980469 C 31.5 157.785156 39.804688 153.421875 48.613281 150.007812 C 61.710938 144.929688 75.253906 142.261719 88.867188 142.089844 C 99.144531 141.945312 110.164062 143.25 121.609375 145.960938 C 122.726562 146.222656 123.832031 146.5 124.929688 146.777344 C 135.824219 149.550781 146.46875 153.375 158.429688 158.808594 C 160.328125 159.671875 162.207031 160.539062 164.078125 161.410156 C 172.683594 165.386719 180.8125 169.148438 189.734375 171.753906 C 190.96875 172.113281 192.210938 172.449219 193.421875 172.746094 C 203.136719 175.136719 213.875 175.84375 225.339844 174.859375 C 237.238281 173.832031 250.648438 170.902344 264.125 166.386719 C 265.503906 165.925781 266.882812 165.445312 268.207031 164.964844 C 276.195312 162.066406 283.128906 158.867188 289.402344 155.183594 C 297.742188 150.289062 304.683594 144.765625 310.636719 138.285156 C 317.277344 131.058594 322.246094 122.8125 325.007812 114.433594 L 325.433594 114.574219 C 323.773438 119.621094 321.316406 124.617188 318.179688 129.371094 Z M 318.183594 129.371094 " fill-opacity="1" fill-rule="nonzero"/></g></g></g><g clip-path="url(#7fdf494332)"><g clip-path="url(#8e7f673fd6)"><g clip-path="url(#5956f23c10)"><path fill="#d9d9d9" d="M 314.492188 133.5625 C 312.660156 136.339844 310.648438 139.03125 308.472656 141.605469 C 302.691406 148.453125 295.789062 154.558594 287.964844 159.75 C 281.652344 163.941406 274.667969 167.550781 267.199219 170.488281 C 265.898438 171.003906 264.546875 171.503906 263.191406 171.984375 C 250.496094 176.480469 237.101562 179.027344 224.453125 179.347656 C 212.773438 179.644531 201.652344 178.082031 191.386719 174.703125 C 190.117188 174.289062 188.816406 173.832031 187.523438 173.34375 C 178.046875 169.773438 169.050781 164.765625 160.351562 159.929688 C 158.535156 158.917969 156.71875 157.90625 154.890625 156.902344 C 145.496094 151.746094 134.175781 145.976562 121.386719 142.28125 C 120.296875 141.964844 119.203125 141.667969 118.140625 141.390625 C 107.492188 138.640625 96.632812 137.589844 85.867188 138.265625 C 72.433594 139.105469 58.96875 142.609375 45.847656 148.675781 C 37.300781 152.632812 29.199219 157.527344 21.773438 163.242188 C 18.257812 165.949219 14.777344 168.886719 11.4375 171.976562 C 1.382812 181.289062 -8.136719 192.664062 -17.671875 206.757812 C -25.949219 218.996094 -33.230469 231.695312 -41.21875 245.839844 L -41.609375 245.617188 C -33.625 231.46875 -26.332031 218.753906 -18.046875 206.503906 C -8.5 192.382812 1.046875 180.980469 11.128906 171.644531 C 14.476562 168.542969 17.964844 165.59375 21.492188 162.882812 C 28.945312 157.148438 37.074219 152.238281 45.652344 148.269531 C 58.828125 142.175781 72.34375 138.664062 85.832031 137.820312 C 96.648438 137.136719 107.554688 138.191406 118.25 140.957031 C 119.320312 141.230469 120.414062 141.53125 121.507812 141.851562 C 134.335938 145.558594 145.691406 151.34375 155.105469 156.511719 C 156.933594 157.511719 158.753906 158.53125 160.570312 159.539062 C 169.253906 164.371094 178.234375 169.371094 187.679688 172.925781 C 188.96875 173.410156 190.261719 173.867188 191.527344 174.28125 C 201.742188 177.640625 212.820312 179.195312 224.445312 178.898438 C 237.042969 178.582031 250.390625 176.042969 263.042969 171.558594 C 264.394531 171.078125 265.738281 170.574219 267.035156 170.066406 C 274.472656 167.144531 281.433594 163.546875 287.714844 159.378906 C 295.503906 154.207031 302.375 148.132812 308.132812 141.316406 C 314.265625 134.0625 319.097656 125.855469 322.121094 117.578125 L 322.539062 117.730469 C 320.574219 123.117188 317.84375 128.476562 314.492188 133.5625 Z M 314.492188 133.5625 " fill-opacity="1" fill-rule="nonzero"/></g></g></g><g clip-path="url(#c8b4007822)"><g clip-path="url(#d5702845f1)"><g clip-path="url(#87e9fee2b2)"><path fill="#d9d9d9" d="M 310.445312 138.445312 C 299.675781 154.785156 284.175781 167.878906 266.039062 175.585938 C 241.789062 185.894531 213.875 186.128906 189.457031 176.226562 C 177.808594 171.507812 166.996094 164.535156 156.535156 157.789062 C 143.449219 149.351562 129.914062 140.625 114.765625 136.371094 C 84.457031 127.863281 48.789062 137.859375 19.339844 163.109375 C -7.070312 185.761719 -25.023438 216.085938 -42.386719 245.414062 L -42.773438 245.1875 C -25.394531 215.828125 -7.421875 185.46875 19.050781 162.769531 C 32.675781 151.09375 48.324219 142.328125 64.3125 137.425781 C 81.777344 132.070312 99.261719 131.558594 114.886719 135.945312 C 130.101562 140.214844 143.664062 148.960938 156.78125 157.417969 C 167.222656 164.148438 178.019531 171.113281 189.625 175.816406 C 213.9375 185.671875 241.722656 185.441406 265.859375 175.175781 C 290.003906 164.914062 309.453125 145.066406 319.226562 120.722656 L 319.644531 120.890625 C 317.171875 127.054688 314.074219 132.9375 310.441406 138.449219 Z M 310.445312 138.445312 " fill-opacity="1" fill-rule="nonzero"/></g></g></g></svg>