<svg xmlns="http://www.w3.org/2000/svg" xmlns:xlink="http://www.w3.org/1999/xlink" width="500" zoomAndPan="magnify" viewBox="0 0 375 374.999991" height="500" preserveAspectRatio="xMidYMid meet" version="1.0"><defs><clipPath id="703a3518ab"><path d="M 0 0 L 303 0 L 303 236 L 0 236 Z M 0 0 " clip-rule="nonzero"/></clipPath><clipPath id="c203522771"><path d="M -26.808594 231.5 L 92.179688 -94.726562 L 307.785156 -16.089844 L 188.796875 310.140625 Z M -26.808594 231.5 " clip-rule="nonzero"/></clipPath><clipPath id="cfd5b3a3e0"><path d="M -26.808594 231.5 L 92.179688 -94.726562 L 307.785156 -16.089844 L 188.796875 310.140625 Z M -26.808594 231.5 " clip-rule="nonzero"/></clipPath><clipPath id="2a1f594494"><path d="M 0 0 L 301 0 L 301 235 L 0 235 Z M 0 0 " clip-rule="nonzero"/></clipPath><clipPath id="0350ce3ffc"><path d="M -26.808594 231.5 L 92.179688 -94.726562 L 307.785156 -16.089844 L 188.796875 310.140625 Z M -26.808594 231.5 " clip-rule="nonzero"/></clipPath><clipPath id="64b7e4d663"><path d="M -26.808594 231.5 L 92.179688 -94.726562 L 307.785156 -16.089844 L 188.796875 310.140625 Z M -26.808594 231.5 " clip-rule="nonzero"/></clipPath><clipPath id="1c3bce58f7"><path d="M 0 0 L 299 0 L 299 235 L 0 235 Z M 0 0 " clip-rule="nonzero"/></clipPath><clipPath id="9cab0e2608"><path d="M -26.808594 231.5 L 92.179688 -94.726562 L 307.785156 -16.089844 L 188.796875 310.140625 Z M -26.808594 231.5 " clip-rule="nonzero"/></clipPath><clipPath id="d51e8b4610"><path d="M -26.808594 231.5 L 92.179688 -94.726562 L 307.785156 -16.089844 L 188.796875 310.140625 Z M -26.808594 231.5 " clip-rule="nonzero"/></clipPath><clipPath id="73a2a69c3a"><path d="M 0 0 L 297 0 L 297 235 L 0 235 Z M 0 0 " clip-rule="nonzero"/></clipPath><clipPath id="37bba11605"><path d="M -26.808594 231.5 L 92.179688 -94.726562 L 307.785156 -16.089844 L 188.796875 310.140625 Z M -26.808594 231.5 " clip-rule="nonzero"/></clipPath><clipPath id="4d1e7431d7"><path d="M -26.808594 231.5 L 92.179688 -94.726562 L 307.785156 -16.089844 L 188.796875 310.140625 Z M -26.808594 231.5 " clip-rule="nonzero"/></clipPath><clipPath id="4b53131857"><path d="M 0 0 L 295 0 L 295 235 L 0 235 Z M 0 0 " clip-rule="nonzero"/></clipPath><clipPath id="7ecb360c60"><path d="M -26.808594 231.5 L 92.179688 -94.726562 L 307.785156 -16.089844 L 188.796875 310.140625 Z M -26.808594 231.5 " clip-rule="nonzero"/></clipPath><clipPath id="39cec32d05"><path d="M -26.808594 231.5 L 92.179688 -94.726562 L 307.785156 -16.089844 L 188.796875 310.140625 Z M -26.808594 231.5 " clip-rule="nonzero"/></clipPath><clipPath id="73dadc5f08"><path d="M 0 0 L 293 0 L 293 235 L 0 235 Z M 0 0 " clip-rule="nonzero"/></clipPath><clipPath id="29aa040361"><path d="M -26.808594 231.5 L 92.179688 -94.726562 L 307.785156 -16.089844 L 188.796875 310.140625 Z M -26.808594 231.5 " clip-rule="nonzero"/></clipPath><clipPath id="4a9a49f9cd"><path d="M -26.808594 231.5 L 92.179688 -94.726562 L 307.785156 -16.089844 L 188.796875 310.140625 Z M -26.808594 231.5 " clip-rule="nonzero"/></clipPath><clipPath id="1c6629837c"><path d="M 0 1 L 291 1 L 291 235 L 0 235 Z M 0 1 " clip-rule="nonzero"/></clipPath><clipPath id="d6d8164705"><path d="M -26.808594 231.5 L 92.179688 -94.726562 L 307.785156 -16.089844 L 188.796875 310.140625 Z M -26.808594 231.5 " clip-rule="nonzero"/></clipPath><clipPath id="dfe0b62ee3"><path d="M -26.808594 231.5 L 92.179688 -94.726562 L 307.785156 -16.089844 L 188.796875 310.140625 Z M -26.808594 231.5 " clip-rule="nonzero"/></clipPath><clipPath id="f3e171585a"><path d="M 0 5 L 289 5 L 289 235 L 0 235 Z M 0 5 " clip-rule="nonzero"/></clipPath><clipPath id="7546b68f2b"><path d="M -26.808594 231.5 L 92.179688 -94.726562 L 307.785156 -16.089844 L 188.796875 310.140625 Z M -26.808594 231.5 " clip-rule="nonzero"/></clipPath><clipPath id="f2104703cb"><path d="M -26.808594 231.5 L 92.179688 -94.726562 L 307.785156 -16.089844 L 188.796875 310.140625 Z M -26.808594 231.5 " clip-rule="nonzero"/></clipPath><clipPath id="33ce004be6"><path d="M 0 8 L 287 8 L 287 235 L 0 235 Z M 0 8 " clip-rule="nonzero"/></clipPath><clipPath id="da73e52e3c"><path d="M -26.808594 231.5 L 92.179688 -94.726562 L 307.785156 -16.089844 L 188.796875 310.140625 Z M -26.808594 231.5 " clip-rule="nonzero"/></clipPath><clipPath id="c806750fd6"><path d="M -26.808594 231.5 L 92.179688 -94.726562 L 307.785156 -16.089844 L 188.796875 310.140625 Z M -26.808594 231.5 " clip-rule="nonzero"/></clipPath><clipPath id="b955a4d519"><path d="M 0 11 L 285 11 L 285 234 L 0 234 Z M 0 11 " clip-rule="nonzero"/></clipPath><clipPath id="851ac93410"><path d="M -26.808594 231.5 L 92.179688 -94.726562 L 307.785156 -16.089844 L 188.796875 310.140625 Z M -26.808594 231.5 " clip-rule="nonzero"/></clipPath><clipPath id="55c1c5f43f"><path d="M -26.808594 231.5 L 92.179688 -94.726562 L 307.785156 -16.089844 L 188.796875 310.140625 Z M -26.808594 231.5 " clip-rule="nonzero"/></clipPath><clipPath id="13bc21c12a"><path d="M 0 15 L 284 15 L 284 234 L 0 234 Z M 0 15 " clip-rule="nonzero"/></clipPath><clipPath id="ad73262e4d"><path d="M -26.808594 231.5 L 92.179688 -94.726562 L 307.785156 -16.089844 L 188.796875 310.140625 Z M -26.808594 231.5 " clip-rule="nonzero"/></clipPath><clipPath id="6e8ab7f359"><path d="M -26.808594 231.5 L 92.179688 -94.726562 L 307.785156 -16.089844 L 188.796875 310.140625 Z M -26.808594 231.5 " clip-rule="nonzero"/></clipPath><clipPath id="96601f5b8d"><path d="M 0 18 L 282 18 L 282 234 L 0 234 Z M 0 18 " clip-rule="nonzero"/></clipPath><clipPath id="b2660a822f"><path d="M -26.808594 231.5 L 92.179688 -94.726562 L 307.785156 -16.089844 L 188.796875 310.140625 Z M -26.808594 231.5 " clip-rule="nonzero"/></clipPath><clipPath id="cba699a8db"><path d="M -26.808594 231.5 L 92.179688 -94.726562 L 307.785156 -16.089844 L 188.796875 310.140625 Z M -26.808594 231.5 " clip-rule="nonzero"/></clipPath><clipPath id="664de5739c"><path d="M 0 21 L 280 21 L 280 234 L 0 234 Z M 0 21 " clip-rule="nonzero"/></clipPath><clipPath id="52a9287654"><path d="M -26.808594 231.5 L 92.179688 -94.726562 L 307.785156 -16.089844 L 188.796875 310.140625 Z M -26.808594 231.5 " clip-rule="nonzero"/></clipPath><clipPath id="3880e74fc3"><path d="M -26.808594 231.5 L 92.179688 -94.726562 L 307.785156 -16.089844 L 188.796875 310.140625 Z M -26.808594 231.5 " clip-rule="nonzero"/></clipPath><clipPath id="032ff98f89"><path d="M 0 24 L 278 24 L 278 234 L 0 234 Z M 0 24 " clip-rule="nonzero"/></clipPath><clipPath id="b745cf62c9"><path d="M -26.808594 231.5 L 92.179688 -94.726562 L 307.785156 -16.089844 L 188.796875 310.140625 Z M -26.808594 231.5 " clip-rule="nonzero"/></clipPath><clipPath id="357da12b58"><path d="M -26.808594 231.5 L 92.179688 -94.726562 L 307.785156 -16.089844 L 188.796875 310.140625 Z M -26.808594 231.5 " clip-rule="nonzero"/></clipPath><clipPath id="5bc682c21e"><path d="M 0 28 L 276 28 L 276 234 L 0 234 Z M 0 28 " clip-rule="nonzero"/></clipPath><clipPath id="f01aa95129"><path d="M -26.808594 231.5 L 92.179688 -94.726562 L 307.785156 -16.089844 L 188.796875 310.140625 Z M -26.808594 231.5 " clip-rule="nonzero"/></clipPath><clipPath id="1b0013e2f6"><path d="M -26.808594 231.5 L 92.179688 -94.726562 L 307.785156 -16.089844 L 188.796875 310.140625 Z M -26.808594 231.5 " clip-rule="nonzero"/></clipPath><clipPath id="07f127b172"><path d="M 0 31 L 274 31 L 274 234 L 0 234 Z M 0 31 " clip-rule="nonzero"/></clipPath><clipPath id="ee89e16787"><path d="M -26.808594 231.5 L 92.179688 -94.726562 L 307.785156 -16.089844 L 188.796875 310.140625 Z M -26.808594 231.5 " clip-rule="nonzero"/></clipPath><clipPath id="56d690bf48"><path d="M -26.808594 231.5 L 92.179688 -94.726562 L 307.785156 -16.089844 L 188.796875 310.140625 Z M -26.808594 231.5 " clip-rule="nonzero"/></clipPath><clipPath id="d4ff34adfb"><path d="M 0 34 L 272 34 L 272 234 L 0 234 Z M 0 34 " clip-rule="nonzero"/></clipPath><clipPath id="ac68ba9950"><path d="M -26.808594 231.5 L 92.179688 -94.726562 L 307.785156 -16.089844 L 188.796875 310.140625 Z M -26.808594 231.5 " clip-rule="nonzero"/></clipPath><clipPath id="80bdb437cb"><path d="M -26.808594 231.5 L 92.179688 -94.726562 L 307.785156 -16.089844 L 188.796875 310.140625 Z M -26.808594 231.5 " clip-rule="nonzero"/></clipPath><clipPath id="dcaa43c36b"><path d="M 0 38 L 270 38 L 270 233 L 0 233 Z M 0 38 " clip-rule="nonzero"/></clipPath><clipPath id="7840c819bb"><path d="M -26.808594 231.5 L 92.179688 -94.726562 L 307.785156 -16.089844 L 188.796875 310.140625 Z M -26.808594 231.5 " clip-rule="nonzero"/></clipPath><clipPath id="9c38dd257c"><path d="M -26.808594 231.5 L 92.179688 -94.726562 L 307.785156 -16.089844 L 188.796875 310.140625 Z M -26.808594 231.5 " clip-rule="nonzero"/></clipPath><clipPath id="35eebce2fc"><path d="M 0 41 L 269 41 L 269 233 L 0 233 Z M 0 41 " clip-rule="nonzero"/></clipPath><clipPath id="8700fd21a3"><path d="M -26.808594 231.5 L 92.179688 -94.726562 L 307.785156 -16.089844 L 188.796875 310.140625 Z M -26.808594 231.5 " clip-rule="nonzero"/></clipPath><clipPath id="4c053f2a0f"><path d="M -26.808594 231.5 L 92.179688 -94.726562 L 307.785156 -16.089844 L 188.796875 310.140625 Z M -26.808594 231.5 " clip-rule="nonzero"/></clipPath><clipPath id="db6e16c3fd"><path d="M 0 44 L 267 44 L 267 233 L 0 233 Z M 0 44 " clip-rule="nonzero"/></clipPath><clipPath id="47f0de3b7f"><path d="M -26.808594 231.5 L 92.179688 -94.726562 L 307.785156 -16.089844 L 188.796875 310.140625 Z M -26.808594 231.5 " clip-rule="nonzero"/></clipPath><clipPath id="ab96b04248"><path d="M -26.808594 231.5 L 92.179688 -94.726562 L 307.785156 -16.089844 L 188.796875 310.140625 Z M -26.808594 231.5 " clip-rule="nonzero"/></clipPath><clipPath id="fad7bd8a43"><path d="M 0 48 L 265 48 L 265 233 L 0 233 Z M 0 48 " clip-rule="nonzero"/></clipPath><clipPath id="04c280eae0"><path d="M -26.808594 231.5 L 92.179688 -94.726562 L 307.785156 -16.089844 L 188.796875 310.140625 Z M -26.808594 231.5 " clip-rule="nonzero"/></clipPath><clipPath id="6eaca2a237"><path d="M -26.808594 231.5 L 92.179688 -94.726562 L 307.785156 -16.089844 L 188.796875 310.140625 Z M -26.808594 231.5 " clip-rule="nonzero"/></clipPath><clipPath id="998392ae28"><path d="M 0 51 L 263 51 L 263 233 L 0 233 Z M 0 51 " clip-rule="nonzero"/></clipPath><clipPath id="c3b4d737d3"><path d="M -26.808594 231.5 L 92.179688 -94.726562 L 307.785156 -16.089844 L 188.796875 310.140625 Z M -26.808594 231.5 " clip-rule="nonzero"/></clipPath><clipPath id="51b2dbac86"><path d="M -26.808594 231.5 L 92.179688 -94.726562 L 307.785156 -16.089844 L 188.796875 310.140625 Z M -26.808594 231.5 " clip-rule="nonzero"/></clipPath></defs><g clip-path="url(#703a3518ab)"><g clip-path="url(#c203522771)"><g clip-path="url(#cfd5b3a3e0)"><path fill="#d9d9d9" d="M 301.042969 -5.347656 C 298.75 0.9375 293.539062 6.492188 287.585938 9.335938 C 277.449219 14.175781 265.78125 13.546875 254.707031 12.484375 L 252.824219 12.300781 C 242.40625 11.285156 231.640625 10.238281 221.707031 13.476562 C 208.011719 17.949219 196.5625 31.058594 191.828125 47.703125 C 187.378906 63.347656 188.726562 80.273438 190.625 94.769531 C 191.070312 98.125 191.558594 101.542969 192.039062 104.847656 C 193.796875 117 195.609375 129.5625 195.207031 142.015625 C 194.933594 150.453125 193.265625 158.34375 190.386719 164.835938 C 186.945312 172.589844 181.9375 178.089844 175.507812 181.1875 C 164.78125 186.351562 150.902344 184.371094 134.261719 175.296875 C 127.878906 171.816406 121.628906 167.863281 115.578125 164.042969 C 107.445312 158.902344 99.039062 153.589844 90.222656 149.367188 C 77.570312 143.308594 58.730469 137.320312 40.871094 143.199219 C 25.210938 148.347656 11.917969 162.640625 5.285156 181.46875 C -0.375 197.523438 -1.195312 214.507812 -0.691406 235.074219 L -1.089844 235.085938 C -1.59375 214.476562 -0.769531 197.449219 4.910156 181.335938 C 11.566406 162.414062 24.972656 148.007812 40.746094 142.816406 C 58.734375 136.898438 77.671875 142.917969 90.394531 149.003906 C 99.230469 153.234375 107.648438 158.554688 115.792969 163.699219 C 121.835938 167.515625 128.082031 171.46875 134.453125 174.9375 C 150.976562 183.945312 164.730469 185.925781 175.335938 180.820312 C 186.925781 175.238281 194.203125 160.726562 194.8125 142 C 195.214844 129.578125 193.398438 117.03125 191.648438 104.898438 C 191.167969 101.597656 190.675781 98.175781 190.234375 94.816406 C 188.328125 80.28125 186.980469 63.304688 191.445312 47.589844 C 196.214844 30.824219 207.761719 17.609375 221.585938 13.09375 C 231.59375 9.828125 242.40625 10.878906 252.863281 11.898438 L 254.746094 12.082031 C 265.765625 13.136719 277.367188 13.773438 287.414062 8.972656 C 297.109375 4.347656 304.800781 -7.566406 300.8125 -17.925781 L 301.179688 -18.070312 C 302.789062 -13.886719 302.539062 -9.464844 301.042969 -5.351562 Z M 301.042969 -5.347656 " fill-opacity="1" fill-rule="nonzero"/></g></g></g><g clip-path="url(#2a1f594494)"><g clip-path="url(#0350ce3ffc)"><g clip-path="url(#64b7e4d663)"><path fill="#d9d9d9" d="M 299.125 -2.101562 C 296.859375 4.117188 291.765625 9.558594 286.0625 12.441406 C 276.226562 17.417969 264.890625 17.132812 254.128906 16.425781 C 253.425781 16.378906 252.722656 16.332031 252.015625 16.28125 C 243.609375 15.707031 234.914062 15.117188 226.65625 16.84375 C 224.992188 17.195312 223.367188 17.628906 221.835938 18.148438 C 208.25 22.726562 197.042969 35.148438 191.867188 51.371094 C 187.375 65.4375 187.789062 80.058594 188.648438 91.226562 C 188.769531 92.808594 188.910156 94.433594 189.082031 96.199219 C 189.390625 99.453125 189.757812 102.757812 190.105469 105.953125 C 191.359375 117.320312 192.648438 129.074219 191.863281 140.710938 C 191.28125 149.269531 188.132812 170.011719 171.542969 177.636719 C 170.339844 178.1875 169.082031 178.667969 167.800781 179.046875 C 157.851562 181.996094 145.398438 179.703125 130.785156 172.234375 C 124.644531 169.089844 118.621094 165.546875 112.800781 162.121094 C 104.617188 157.304688 96.15625 152.328125 87.332031 148.464844 C 75.878906 143.445312 64.960938 141.003906 54.871094 141.195312 C 49.339844 141.304688 44.070312 142.230469 39.210938 143.957031 C 24.015625 149.34375 11.035156 163.597656 4.507812 182.101562 C -1.085938 197.933594 -2.050781 214.675781 -1.785156 234.949219 L -2.179688 234.957031 C -2.449219 214.640625 -1.480469 197.855469 4.132812 181.96875 C 10.691406 163.371094 23.769531 149.007812 39.074219 143.582031 C 43.976562 141.84375 49.289062 140.910156 54.863281 140.800781 C 65.007812 140.601562 75.988281 143.058594 87.492188 148.097656 C 96.335938 151.972656 104.804688 156.957031 113 161.78125 C 118.816406 165.207031 124.832031 168.746094 130.964844 171.878906 C 145.480469 179.300781 157.835938 181.578125 167.683594 178.664062 C 168.945312 178.292969 170.1875 177.824219 171.375 177.28125 C 187.769531 169.742188 190.886719 149.179688 191.460938 140.6875 C 192.246094 129.082031 190.957031 117.347656 189.707031 106 C 189.355469 102.800781 188.992188 99.496094 188.675781 96.238281 C 188.507812 94.46875 188.367188 92.84375 188.246094 91.257812 C 187.382812 80.054688 186.96875 65.382812 191.480469 51.25 C 193.898438 43.679688 197.800781 36.640625 202.769531 30.894531 C 208.152344 24.667969 214.699219 20.128906 221.699219 17.769531 C 223.242188 17.25 224.882812 16.808594 226.558594 16.457031 C 234.871094 14.722656 243.59375 15.3125 252.027344 15.886719 C 252.734375 15.9375 253.4375 15.984375 254.140625 16.03125 C 264.855469 16.738281 276.128906 17.019531 285.867188 12.09375 C 295.140625 7.40625 302.777344 -4.144531 298.949219 -14.625 L 299.324219 -14.757812 C 300.863281 -10.539062 300.589844 -6.152344 299.109375 -2.097656 Z M 299.125 -2.101562 " fill-opacity="1" fill-rule="nonzero"/></g></g></g><g clip-path="url(#1c3bce58f7)"><g clip-path="url(#9cab0e2608)"><g clip-path="url(#d51e8b4610)"><path fill="#d9d9d9" d="M 297.132812 1.175781 C 296.789062 2.125 296.371094 3.070312 295.890625 4.003906 C 293.40625 8.8125 289.265625 13.023438 284.539062 15.558594 C 275.015625 20.664062 264.007812 20.734375 253.550781 20.371094 C 252.765625 20.34375 251.976562 20.3125 251.183594 20.28125 C 243.082031 19.980469 234.703125 19.667969 226.703125 21.476562 C 225.070312 21.84375 223.476562 22.296875 221.972656 22.820312 C 208.824219 27.402344 197.660156 39.28125 192.054688 54.648438 C 192.007812 54.78125 191.960938 54.910156 191.910156 55.046875 C 187.097656 68.519531 186.933594 82.378906 187.324219 92.945312 C 187.378906 94.429688 187.453125 95.964844 187.542969 97.636719 C 187.71875 100.765625 187.949219 103.933594 188.164062 107 C 188.921875 117.601562 189.695312 128.5625 188.523438 139.414062 C 187.652344 147.46875 183.863281 166.976562 167.589844 174.097656 C 166.402344 174.613281 165.15625 175.0625 163.890625 175.421875 C 153.988281 178.21875 142.027344 176.175781 127.324219 169.175781 C 121.453125 166.375 115.695312 163.242188 110.132812 160.214844 C 101.867188 155.71875 93.324219 151.066406 84.460938 147.558594 C 73.21875 143.109375 62.558594 141.101562 52.777344 141.59375 C 47.394531 141.863281 42.277344 142.910156 37.5625 144.710938 C 22.828125 150.335938 10.164062 164.546875 3.742188 182.734375 C -1.78125 198.335938 -2.894531 214.835938 -2.859375 234.824219 L -3.257812 234.820312 C -3.292969 214.796875 -2.175781 198.253906 3.367188 182.601562 C 6.421875 174.003906 10.957031 166.027344 16.5 159.546875 C 22.597656 152.425781 29.632812 147.308594 37.421875 144.335938 C 42.175781 142.523438 47.332031 141.464844 52.753906 141.191406 C 62.589844 140.691406 73.308594 142.710938 84.605469 147.183594 C 93.492188 150.703125 102.050781 155.359375 110.320312 159.863281 C 115.878906 162.890625 121.632812 166.015625 127.496094 168.816406 C 142.105469 175.773438 153.976562 177.808594 163.78125 175.035156 C 165.03125 174.683594 166.257812 174.242188 167.433594 173.726562 C 183.515625 166.6875 187.261719 147.351562 188.132812 139.363281 C 189.300781 128.550781 188.519531 117.605469 187.765625 107.019531 C 187.546875 103.953125 187.324219 100.78125 187.144531 97.648438 C 187.054688 95.976562 186.980469 94.4375 186.925781 92.953125 C 186.527344 82.347656 186.699219 68.445312 191.535156 54.902344 C 197.136719 39.230469 208.460938 27.09375 221.839844 22.4375 C 223.355469 21.90625 224.960938 21.453125 226.609375 21.078125 C 234.660156 19.261719 243.066406 19.574219 251.195312 19.878906 C 251.984375 19.910156 252.773438 19.941406 253.558594 19.96875 C 263.957031 20.332031 274.90625 20.261719 284.347656 15.199219 C 293.25 10.433594 300.660156 -1.066406 297.121094 -11.328125 L 297.5 -11.457031 C 298.851562 -7.539062 298.710938 -3.144531 297.136719 1.171875 Z M 297.132812 1.175781 " fill-opacity="1" fill-rule="nonzero"/></g></g></g><g clip-path="url(#73a2a69c3a)"><g clip-path="url(#37bba11605)"><g clip-path="url(#4d1e7431d7)"><path fill="#d9d9d9" d="M 295.199219 4.347656 C 293.011719 10.34375 288.316406 15.648438 283.007812 18.660156 C 273.78125 23.90625 263.105469 24.328125 252.964844 24.3125 C 252.085938 24.308594 251.203125 24.308594 250.316406 24.300781 C 242.527344 24.261719 234.472656 24.222656 226.738281 26.097656 C 225.136719 26.484375 223.578125 26.953125 222.097656 27.484375 C 209.152344 32.136719 197.878906 43.8125 191.941406 58.710938 C 186.8125 71.578125 186.0625 84.679688 185.980469 94.652344 C 185.972656 96.050781 185.976562 97.492188 185.992188 99.058594 C 186.027344 102.039062 186.109375 105.054688 186.183594 107.964844 C 186.449219 117.824219 186.722656 128.019531 185.171875 138.101562 C 184.078125 145.164062 181.855469 151.679688 178.734375 156.945312 C 174.917969 163.390625 169.835938 167.964844 163.625 170.539062 C 162.449219 171.027344 161.214844 171.445312 159.960938 171.785156 C 150.25 174.394531 138.441406 172.535156 123.847656 166.105469 C 118.292969 163.652344 112.84375 160.929688 107.570312 158.300781 C 98.796875 153.925781 90.507812 149.789062 81.5625 146.644531 C 70.535156 142.757812 60.132812 141.1875 50.65625 141.976562 C 45.429688 142.414062 40.464844 143.582031 35.894531 145.457031 C 21.578125 151.335938 9.6875 164.890625 3.1875 182.707031 C 3.109375 182.921875 3.03125 183.140625 2.953125 183.355469 C -3.117188 200.441406 -3.804688 218.8125 -3.964844 234.6875 L -4.363281 234.679688 C -4.195312 218.773438 -3.511719 200.371094 2.578125 183.222656 C 9.0625 164.972656 21.148438 151.078125 35.742188 145.085938 C 40.347656 143.195312 45.351562 142.015625 50.621094 141.582031 C 60.15625 140.789062 70.609375 142.363281 81.691406 146.265625 C 90.660156 149.421875 99.34375 153.753906 107.742188 157.945312 C 113.007812 160.574219 118.453125 163.285156 124 165.742188 C 138.507812 172.132812 150.234375 173.984375 159.851562 171.402344 C 161.085938 171.066406 162.304688 170.652344 163.46875 170.171875 C 179.230469 163.632812 183.621094 145.523438 184.773438 138.042969 C 186.320312 127.996094 186.046875 117.820312 185.78125 107.980469 C 185.703125 105.0625 185.625 102.050781 185.589844 99.066406 C 185.570312 97.496094 185.566406 96.050781 185.582031 94.652344 C 185.660156 84.640625 186.414062 71.496094 191.570312 58.5625 C 197.546875 43.558594 208.90625 31.800781 221.960938 27.109375 C 223.449219 26.574219 225.027344 26.101562 226.640625 25.707031 C 234.421875 23.816406 242.5 23.859375 250.3125 23.898438 C 251.199219 23.90625 252.082031 23.910156 252.960938 23.90625 C 263.050781 23.925781 273.664062 23.507812 282.804688 18.3125 C 291.527344 13.359375 298.570312 2.148438 295.269531 -8.035156 L 295.648438 -8.15625 C 296.996094 -3.996094 296.65625 0.328125 295.191406 4.34375 Z M 295.199219 4.347656 " fill-opacity="1" fill-rule="nonzero"/></g></g></g><g clip-path="url(#4b53131857)"><g clip-path="url(#7ecb360c60)"><g clip-path="url(#39cec32d05)"><path fill="#d9d9d9" d="M 293.207031 7.648438 C 292.890625 8.515625 292.519531 9.382812 292.09375 10.238281 C 289.765625 14.910156 285.898438 19.113281 281.488281 21.777344 C 272.554688 27.167969 262.214844 27.933594 252.390625 28.257812 C 251.402344 28.292969 250.410156 28.320312 249.414062 28.351562 C 241.953125 28.566406 234.234375 28.789062 226.785156 30.734375 C 225.210938 31.144531 223.679688 31.625 222.234375 32.160156 C 209.613281 36.847656 198.308594 48.144531 191.984375 62.386719 C 186.542969 74.640625 185.207031 86.988281 184.652344 96.378906 C 184.574219 97.699219 184.507812 99.054688 184.449219 100.503906 C 184.339844 103.3125 184.269531 106.140625 184.207031 108.878906 C 183.976562 118.441406 183.765625 127.476562 181.832031 136.8125 C 180.015625 145.554688 174.714844 161.109375 159.667969 167.003906 C 158.503906 167.460938 157.285156 167.855469 156.046875 168.171875 C 146.410156 170.625 135.078125 169 120.382812 163.058594 C 115.195312 160.953125 110.105469 158.648438 105.179688 156.417969 C 96.222656 152.363281 87.761719 148.53125 78.6875 145.75 C 67.875 142.433594 57.734375 141.300781 48.558594 142.386719 C 43.488281 142.984375 38.675781 144.277344 34.246094 146.226562 C 20.222656 152.417969 8.535156 166.191406 2.191406 184.003906 C -3.808594 200.835938 -4.691406 218.933594 -5.042969 234.574219 L -5.441406 234.5625 C -5.085938 218.890625 -4.203125 200.757812 1.816406 183.871094 C 8.210938 165.9375 19.964844 152.089844 34.085938 145.859375 C 38.546875 143.890625 43.402344 142.59375 48.511719 141.988281 C 57.746094 140.898438 67.941406 142.035156 78.804688 145.371094 C 87.90625 148.15625 96.375 151.996094 105.347656 156.054688 C 110.265625 158.28125 115.359375 160.585938 120.535156 162.691406 C 135.148438 168.601562 146.402344 170.21875 155.949219 167.789062 C 157.171875 167.476562 158.371094 167.089844 159.527344 166.636719 C 174.398438 160.808594 179.648438 145.40625 181.445312 136.734375 C 183.371094 127.433594 183.585938 118.414062 183.816406 108.871094 C 183.878906 106.132812 183.949219 103.300781 184.058594 100.492188 C 184.117188 99.035156 184.1875 97.6875 184.261719 96.359375 C 184.820312 86.9375 186.164062 74.542969 191.628906 62.226562 C 197.992188 47.890625 209.386719 36.511719 222.101562 31.792969 C 223.5625 31.25 225.105469 30.765625 226.691406 30.351562 C 234.183594 28.394531 241.921875 28.171875 249.410156 27.953125 C 250.40625 27.925781 251.394531 27.894531 252.386719 27.863281 C 262.15625 27.539062 272.4375 26.78125 281.289062 21.4375 C 289.519531 16.476562 296.574219 5.621094 293.441406 -4.726562 L 293.820312 -4.839844 C 294.996094 -0.964844 294.773438 3.386719 293.21875 7.652344 Z M 293.207031 7.648438 " fill-opacity="1" fill-rule="nonzero"/></g></g></g><g clip-path="url(#73dadc5f08)"><g clip-path="url(#29aa040361)"><g clip-path="url(#4a9a49f9cd)"><path fill="#d9d9d9" d="M 291.28125 10.789062 C 289.140625 16.65625 284.742188 21.824219 279.964844 24.882812 C 271.316406 30.425781 260.898438 31.566406 251.8125 32.195312 C 250.710938 32.273438 249.59375 32.34375 248.476562 32.417969 C 241.347656 32.878906 233.980469 33.355469 226.828125 35.355469 C 225.285156 35.789062 223.78125 36.28125 222.363281 36.828125 C 210.078125 41.542969 198.734375 52.46875 192.023438 66.054688 C 186.285156 77.667969 184.355469 89.277344 183.320312 98.09375 C 183.179688 99.320312 183.042969 100.578125 182.90625 101.9375 C 182.652344 104.535156 182.4375 107.148438 182.226562 109.671875 C 181.496094 118.519531 180.808594 126.878906 178.484375 135.507812 C 176.292969 143.617188 170.417969 158.03125 155.707031 163.449219 C 154.558594 163.878906 153.347656 164.242188 152.121094 164.539062 C 139.75 167.507812 126.101562 163.367188 116.910156 159.988281 C 112.160156 158.234375 107.488281 156.335938 102.972656 154.503906 C 93.765625 150.761719 85.066406 147.230469 75.800781 144.832031 C 65.203125 142.082031 55.328125 141.386719 46.445312 142.769531 C 41.53125 143.527344 36.867188 144.941406 32.585938 146.96875 C 19.03125 153.398438 7.652344 167.132812 1.414062 184.628906 C -4.511719 201.203125 -5.589844 219.027344 -6.136719 234.4375 L -6.535156 234.421875 C -5.988281 218.984375 -4.90625 201.125 1.039062 184.496094 C 7.339844 166.890625 18.765625 153.085938 32.417969 146.609375 C 36.730469 144.566406 41.433594 143.144531 46.386719 142.378906 C 55.320312 140.992188 65.25 141.6875 75.898438 144.449219 C 85.191406 146.851562 93.902344 150.390625 103.121094 154.132812 C 107.636719 155.964844 112.304688 157.863281 117.050781 159.617188 C 126.191406 162.972656 139.765625 167.097656 152.035156 164.152344 C 153.246094 163.859375 154.4375 163.5 155.574219 163.074219 C 170.117188 157.71875 175.9375 143.4375 178.105469 135.402344 C 180.417969 126.808594 181.105469 118.46875 181.832031 109.636719 C 182.039062 107.109375 182.257812 104.496094 182.511719 101.894531 C 182.648438 100.53125 182.78125 99.273438 182.929688 98.042969 C 183.972656 89.195312 185.90625 77.542969 191.667969 65.875 C 198.421875 52.199219 209.847656 41.203125 222.226562 36.453125 C 223.65625 35.90625 225.167969 35.40625 226.722656 34.972656 C 233.914062 32.957031 241.304688 32.484375 248.453125 32.019531 C 249.566406 31.949219 250.679688 31.875 251.78125 31.800781 C 260.824219 31.167969 271.179688 30.035156 279.75 24.546875 C 287.613281 19.511719 294.4375 8.699219 291.585938 -1.429688 L 291.96875 -1.535156 C 293.132812 2.605469 292.714844 6.855469 291.277344 10.789062 Z M 291.28125 10.789062 " fill-opacity="1" fill-rule="nonzero"/></g></g></g><g clip-path="url(#1c6629837c)"><g clip-path="url(#d6d8164705)"><g clip-path="url(#dfe0b62ee3)"><path fill="#d9d9d9" d="M 289.328125 14.082031 C 287.242188 19.796875 283.066406 24.84375 278.4375 27.992188 C 270.070312 33.691406 260.011719 35.1875 251.234375 36.140625 C 249.992188 36.277344 248.742188 36.40625 247.488281 36.535156 C 240.710938 37.222656 233.707031 37.941406 226.871094 39.988281 C 225.359375 40.4375 223.886719 40.949219 222.496094 41.496094 C 210.363281 46.308594 199.269531 56.59375 192.058594 69.726562 C 186.042969 80.675781 183.515625 91.558594 181.988281 99.8125 C 181.78125 100.941406 181.574219 102.105469 181.363281 103.375 C 180.96875 105.730469 180.613281 108.089844 180.269531 110.367188 C 179.03125 118.539062 177.863281 126.257812 175.136719 134.214844 C 171.992188 143.34375 165.386719 155.214844 151.746094 159.910156 C 150.605469 160.304688 149.417969 160.644531 148.203125 160.917969 C 136.273438 163.601562 123.355469 160.199219 113.4375 156.933594 C 109.214844 155.53125 105.046875 154.035156 101.015625 152.589844 C 91.46875 149.164062 82.449219 145.929688 72.917969 143.933594 C 62.542969 141.753906 52.929688 141.496094 44.335938 143.167969 C 39.578125 144.089844 35.0625 145.621094 30.925781 147.722656 C 17.953125 154.332031 6.988281 167.839844 0.796875 184.820312 C 0.742188 184.96875 0.691406 185.113281 0.636719 185.261719 C -5.214844 201.578125 -6.492188 219.136719 -7.226562 234.316406 L -7.625 234.296875 C -6.890625 219.089844 -5.609375 201.5 0.261719 185.128906 C 0.316406 184.980469 0.371094 184.832031 0.421875 184.6875 C 6.652344 167.609375 17.683594 154.027344 30.746094 147.375 C 34.914062 145.253906 39.460938 143.707031 44.257812 142.777344 C 52.902344 141.097656 62.570312 141.355469 72.992188 143.546875 C 82.554688 145.550781 91.585938 148.789062 101.144531 152.21875 C 105.175781 153.664062 109.335938 155.15625 113.558594 156.558594 C 123.429688 159.804688 136.277344 163.195312 148.109375 160.53125 C 149.308594 160.261719 150.488281 159.925781 151.609375 159.535156 C 165.101562 154.890625 171.644531 143.140625 174.757812 134.085938 C 177.46875 126.164062 178.636719 118.464844 179.871094 110.308594 C 180.214844 108.023438 180.574219 105.664062 180.964844 103.3125 C 181.179688 102.039062 181.386719 100.871094 181.59375 99.742188 C 183.128906 91.457031 185.667969 80.535156 191.710938 69.535156 C 198.96875 56.324219 210.132812 45.96875 222.347656 41.125 C 223.75 40.570312 225.234375 40.058594 226.753906 39.601562 C 233.625 37.542969 240.652344 36.832031 247.441406 36.132812 C 248.695312 36.003906 249.945312 35.875 251.183594 35.738281 C 259.914062 34.792969 269.921875 33.300781 278.207031 27.65625 C 285.90625 22.421875 292.335938 11.882812 289.738281 1.863281 L 290.121094 1.761719 C 291.199219 5.914062 290.753906 10.152344 289.320312 14.074219 Z M 289.328125 14.082031 " fill-opacity="1" fill-rule="nonzero"/></g></g></g><g clip-path="url(#f3e171585a)"><g clip-path="url(#7546b68f2b)"><g clip-path="url(#f2104703cb)"><path fill="#d9d9d9" d="M 287.335938 17.292969 C 285.285156 22.917969 281.296875 27.925781 276.910156 31.097656 C 268.820312 36.960938 259.117188 38.808594 250.652344 40.078125 C 249.257812 40.289062 247.851562 40.488281 246.4375 40.6875 C 240.03125 41.59375 233.410156 42.535156 226.914062 44.609375 C 225.433594 45.082031 223.996094 45.601562 222.625 46.160156 C 210.847656 50.988281 199.71875 60.910156 192.097656 73.394531 C 185.832031 83.648438 182.6875 93.816406 180.648438 101.53125 C 180.355469 102.636719 180.082031 103.730469 179.808594 104.8125 C 179.300781 106.863281 178.824219 108.917969 178.363281 110.902344 C 176.601562 118.453125 174.941406 125.582031 171.785156 132.914062 C 166.605469 144.890625 158.300781 152.996094 147.78125 156.359375 C 146.660156 156.722656 145.476562 157.035156 144.28125 157.289062 C 132.6875 159.722656 119.851562 156.738281 109.96875 153.871094 C 106.375 152.820312 102.820312 151.710938 99.382812 150.640625 C 89.382812 147.527344 79.933594 144.589844 70.03125 143.023438 C 59.886719 141.417969 50.53125 141.59375 42.230469 143.558594 C 37.625 144.644531 33.265625 146.300781 29.269531 148.480469 C 16.742188 155.332031 6.089844 168.824219 -0.00390625 185.53125 C -0.046875 185.652344 -0.09375 185.773438 -0.136719 185.894531 C -5.914062 201.949219 -7.382812 219.242188 -8.316406 234.1875 L -8.710938 234.164062 C -7.78125 219.191406 -6.304688 201.867188 -0.511719 185.757812 C 5.597656 168.792969 16.378906 155.078125 29.082031 148.125 C 33.109375 145.933594 37.5 144.261719 42.136719 143.167969 C 50.492188 141.195312 59.898438 141.011719 70.09375 142.628906 C 80.023438 144.199219 89.484375 147.140625 99.503906 150.257812 C 102.9375 151.328125 106.492188 152.433594 110.078125 153.484375 C 119.917969 156.339844 132.6875 159.3125 144.195312 156.894531 C 145.382812 156.640625 146.546875 156.332031 147.660156 155.976562 C 160.808594 151.773438 167.839844 141.027344 171.421875 132.753906 C 174.5625 125.457031 176.222656 118.339844 177.976562 110.808594 C 178.4375 108.824219 178.917969 106.769531 179.425781 104.714844 C 179.695312 103.628906 179.976562 102.535156 180.265625 101.429688 C 182.308594 93.6875 185.464844 83.484375 191.753906 73.183594 C 199.417969 60.632812 210.617188 50.648438 222.472656 45.792969 C 223.851562 45.226562 225.304688 44.703125 226.789062 44.230469 C 233.320312 42.144531 239.960938 41.199219 246.378906 40.292969 C 247.792969 40.09375 249.199219 39.898438 250.59375 39.683594 C 259.007812 38.417969 268.660156 36.585938 276.675781 30.773438 C 284.003906 25.472656 290.214844 14.972656 287.894531 5.164062 L 288.28125 5.074219 C 289.25 9.167969 288.761719 13.382812 287.335938 17.292969 Z M 287.335938 17.292969 " fill-opacity="1" fill-rule="nonzero"/></g></g></g><g clip-path="url(#33ce004be6)"><g clip-path="url(#da73e52e3c)"><g clip-path="url(#c806750fd6)"><path fill="#d9d9d9" d="M 285.394531 20.5625 C 283.347656 26.171875 279.449219 31.078125 275.386719 34.207031 C 267.5625 40.25 258.21875 42.441406 250.074219 44.027344 C 248.503906 44.328125 246.882812 44.628906 245.320312 44.917969 C 239.304688 46.015625 233.089844 47.152344 226.957031 49.242188 C 225.507812 49.734375 224.09375 50.269531 222.753906 50.839844 C 211.335938 55.675781 200.175781 65.234375 192.128906 77.070312 C 185.707031 86.515625 182.042969 95.609375 179.308594 103.261719 C 178.949219 104.273438 178.59375 105.273438 178.257812 106.257812 C 177.679688 107.949219 177.128906 109.609375 176.585938 111.25 C 174.265625 118.25 172.074219 124.859375 168.433594 131.625 C 162.476562 142.628906 154.195312 149.761719 143.820312 152.820312 C 142.707031 153.148438 141.542969 153.4375 140.355469 153.667969 C 129.199219 155.839844 116.980469 153.445312 106.496094 150.8125 C 103.683594 150.101562 100.886719 149.363281 98.183594 148.648438 C 87.570312 145.851562 77.546875 143.207031 67.148438 142.125 C 57.238281 141.085938 48.144531 141.703125 40.125 143.957031 C 35.675781 145.207031 31.46875 146.984375 27.613281 149.238281 C 15.535156 156.335938 5.1875 169.816406 -0.808594 186.25 C -0.84375 186.34375 -0.878906 186.4375 -0.910156 186.53125 C -6.613281 202.328125 -8.285156 219.347656 -9.402344 234.0625 L -9.800781 234.03125 C -8.675781 219.289062 -7 202.238281 -1.285156 186.394531 C -1.25 186.300781 -1.214844 186.207031 -1.179688 186.109375 C 4.84375 169.589844 15.253906 156.035156 27.414062 148.890625 C 31.296875 146.617188 35.535156 144.828125 40.015625 143.566406 C 48.089844 141.296875 57.230469 140.675781 67.191406 141.722656 C 77.621094 142.808594 87.65625 145.453125 98.285156 148.257812 C 100.988281 148.972656 103.785156 149.710938 106.59375 150.421875 C 117.035156 153.039062 129.199219 155.425781 140.28125 153.273438 C 141.453125 153.042969 142.605469 152.757812 143.707031 152.429688 C 153.976562 149.402344 162.175781 142.339844 168.085938 131.429688 C 171.710938 124.691406 173.898438 118.097656 176.210938 111.117188 C 176.753906 109.476562 177.304688 107.8125 177.882812 106.121094 C 178.222656 105.128906 178.570312 104.128906 178.9375 103.117188 C 181.683594 95.4375 185.355469 86.316406 191.804688 76.835938 C 199.890625 64.941406 211.117188 55.328125 222.601562 50.460938 C 223.953125 49.890625 225.375 49.351562 226.828125 48.859375 C 232.988281 46.757812 239.222656 45.617188 245.25 44.515625 C 246.816406 44.226562 248.433594 43.929688 250 43.625 C 258.101562 42.054688 267.390625 39.871094 275.144531 33.886719 C 281.898438 28.683594 288.191406 18.507812 286.050781 8.460938 L 286.441406 8.378906 C 287.328125 12.535156 286.796875 16.710938 285.394531 20.558594 Z M 285.394531 20.5625 " fill-opacity="1" fill-rule="nonzero"/></g></g></g><g clip-path="url(#b955a4d519)"><g clip-path="url(#851ac93410)"><g clip-path="url(#55c1c5f43f)"><path fill="#d9d9d9" d="M 283.394531 23.800781 C 281.386719 29.308594 277.691406 34.171875 273.863281 37.316406 C 267.0625 42.917969 259.203125 45.625 249.5 47.964844 C 247.722656 48.390625 245.882812 48.808594 244.101562 49.214844 C 238.507812 50.480469 232.726562 51.789062 227 53.867188 C 225.578125 54.382812 224.199219 54.933594 222.886719 55.507812 C 207.777344 62.125 197.152344 74.15625 192.164062 80.742188 C 185.679688 89.296875 181.511719 97.453125 177.96875 104.980469 C 177.535156 105.898438 177.117188 106.808594 176.707031 107.699219 C 176.15625 108.90625 175.617188 110.089844 175.09375 111.257812 C 172.128906 117.820312 169.328125 124.019531 165.078125 130.328125 C 158.300781 140.328125 150.054688 146.523438 139.855469 149.269531 C 138.757812 149.566406 137.605469 149.828125 136.433594 150.039062 C 125.203125 152.046875 113.300781 149.914062 103.023438 147.753906 C 101.191406 147.363281 99.375 146.96875 97.574219 146.578125 C 86.132812 144.09375 75.332031 141.746094 64.261719 141.21875 C 54.589844 140.742188 45.753906 141.796875 38.011719 144.347656 C 33.722656 145.757812 29.664062 147.65625 25.953125 149.992188 C 14.152344 157.441406 4.367188 170.5625 -1.613281 186.957031 C -1.636719 187.027344 -1.664062 187.097656 -1.6875 187.167969 C -7.3125 202.703125 -9.1875 219.457031 -10.496094 233.9375 L -10.894531 233.902344 C -9.582031 219.390625 -7.707031 202.609375 -2.066406 187.03125 C -2.039062 186.957031 -2.015625 186.886719 -1.988281 186.820312 C 4.019531 170.34375 13.859375 157.152344 25.738281 149.65625 C 29.476562 147.304688 33.5625 145.390625 37.882812 143.972656 C 45.675781 141.402344 54.558594 140.34375 64.28125 140.824219 C 75.382812 141.351562 86.199219 143.703125 97.652344 146.191406 C 99.453125 146.582031 101.269531 146.976562 103.105469 147.367188 C 113.34375 149.519531 125.199219 151.648438 136.359375 149.652344 C 137.519531 149.441406 138.660156 149.1875 139.75 148.890625 C 149.851562 146.171875 158.027344 140.03125 164.742188 130.109375 C 168.972656 123.828125 171.765625 117.644531 174.722656 111.097656 C 175.25 109.925781 175.785156 108.742188 176.339844 107.535156 C 176.75 106.644531 177.167969 105.734375 177.601562 104.816406 C 181.152344 97.265625 185.332031 89.089844 191.839844 80.503906 C 196.851562 73.890625 207.523438 61.796875 222.71875 55.148438 C 224.039062 54.570312 225.425781 54.019531 226.855469 53.5 C 232.609375 51.410156 238.402344 50.097656 244.003906 48.832031 C 245.78125 48.429688 247.621094 48.011719 249.394531 47.585938 C 259.046875 45.257812 266.855469 42.570312 273.601562 37.015625 C 280.007812 31.75 286.058594 21.601562 284.199219 11.765625 L 284.589844 11.695312 C 285.367188 15.804688 284.785156 19.964844 283.382812 23.808594 Z M 283.394531 23.800781 " fill-opacity="1" fill-rule="nonzero"/></g></g></g><g clip-path="url(#13bc21c12a)"><g clip-path="url(#ad73262e4d)"><g clip-path="url(#6e8ab7f359)"><path fill="#d9d9d9" d="M 281.417969 27.140625 C 279.476562 32.460938 276.023438 37.191406 272.335938 40.421875 C 265.375 46.550781 256.96875 49.5625 248.921875 51.90625 C 246.902344 52.496094 244.890625 53.039062 242.761719 53.621094 C 237.632812 55.011719 232.324219 56.453125 227.039062 58.496094 C 225.648438 59.03125 224.296875 59.597656 223.015625 60.175781 C 208.460938 66.761719 197.460938 78.191406 192.199219 84.410156 C 185.5625 92.257812 180.863281 99.726562 176.625 106.707031 C 176.125 107.535156 175.632812 108.347656 175.148438 109.144531 L 174.230469 110.675781 C 170.253906 117.296875 166.820312 123.019531 161.71875 129.039062 C 156.910156 134.679688 149 142.539062 135.890625 145.726562 C 134.804688 145.996094 133.667969 146.226562 132.511719 146.417969 C 121.828125 148.15625 110.371094 146.515625 99.554688 144.691406 L 97.785156 144.390625 C 85.21875 142.226562 73.351562 140.179688 61.382812 140.3125 C 51.957031 140.402344 43.382812 141.890625 35.90625 144.746094 C 31.773438 146.320312 27.867188 148.335938 24.300781 150.746094 C 12.949219 158.445312 3.460938 171.5625 -2.421875 187.691406 L -2.460938 187.804688 C -8.011719 203.074219 -10.078125 219.5625 -11.582031 233.816406 L -11.980469 233.773438 C -10.46875 219.496094 -8.398438 202.976562 -2.835938 187.667969 C 3.078125 171.402344 12.628906 158.179688 24.074219 150.421875 C 27.671875 147.992188 31.605469 145.957031 35.765625 144.375 C 43.289062 141.511719 51.90625 140.007812 61.382812 139.917969 C 73.386719 139.789062 85.273438 141.835938 97.859375 144.003906 L 99.628906 144.304688 C 110.414062 146.125 121.828125 147.757812 132.453125 146.027344 C 133.601562 145.835938 134.726562 145.609375 135.804688 145.34375 C 148.804688 142.183594 156.648438 134.378906 161.425781 128.785156 C 166.507812 122.789062 169.929688 117.082031 173.898438 110.472656 L 174.816406 108.941406 C 175.300781 108.144531 175.789062 107.332031 176.296875 106.503906 C 180.542969 99.511719 185.25 92.023438 191.90625 84.160156 C 197.1875 77.914062 208.238281 66.441406 222.859375 59.820312 C 224.148438 59.238281 225.507812 58.667969 226.90625 58.132812 C 232.210938 56.082031 237.527344 54.640625 242.667969 53.242188 C 244.789062 52.664062 246.796875 52.121094 248.816406 51.53125 C 256.820312 49.199219 265.175781 46.207031 272.082031 40.132812 C 278.351562 34.628906 283.964844 24.746094 282.367188 15.066406 L 282.761719 15.003906 C 283.4375 19.132812 282.832031 23.296875 281.425781 27.148438 Z M 281.417969 27.140625 " fill-opacity="1" fill-rule="nonzero"/></g></g></g><g clip-path="url(#96601f5b8d)"><g clip-path="url(#b2660a822f)"><g clip-path="url(#cba699a8db)"><path fill="#d9d9d9" d="M 279.394531 30.601562 C 277.671875 35.320312 274.722656 39.859375 270.8125 43.53125 C 264.082031 49.867188 256.035156 53.195312 248.34375 55.84375 C 246.035156 56.640625 243.71875 57.375 241.273438 58.15625 C 236.644531 59.628906 231.863281 61.15625 227.082031 63.121094 C 225.726562 63.675781 224.402344 64.253906 223.148438 64.84375 C 209.914062 71.042969 199.03125 80.90625 192.234375 88.082031 C 185.882812 94.789062 181.039062 101.023438 176.765625 106.523438 C 176.265625 107.171875 175.769531 107.808594 175.28125 108.433594 C 174.710938 109.167969 174.148438 109.886719 173.597656 110.589844 C 168.648438 116.902344 164.386719 122.171875 158.363281 127.746094 C 152.59375 133.046875 144.371094 139.480469 131.933594 142.179688 C 130.863281 142.417969 129.738281 142.621094 128.59375 142.789062 C 117.78125 144.371094 106.308594 142.921875 96.183594 141.644531 L 96.089844 141.628906 C 82.675781 139.890625 70.589844 138.527344 58.503906 139.402344 C 49.328125 140.050781 41.019531 141.980469 33.800781 145.132812 C 29.824219 146.867188 26.074219 149.007812 22.640625 151.496094 C 11.742188 159.441406 2.550781 172.558594 -3.238281 188.429688 C -8.710938 203.4375 -10.976562 219.65625 -12.675781 233.6875 L -13.066406 233.640625 C -11.367188 219.589844 -9.09375 203.339844 -3.609375 188.296875 C 2.207031 172.347656 11.449219 159.167969 22.410156 151.175781 C 25.867188 148.667969 29.644531 146.511719 33.644531 144.769531 C 40.902344 141.601562 49.261719 139.660156 58.480469 139.007812 C 70.605469 138.132812 82.710938 139.5 96.144531 141.238281 L 96.242188 141.253906 C 106.339844 142.527344 117.785156 143.976562 128.539062 142.402344 C 129.675781 142.234375 130.792969 142.03125 131.855469 141.796875 C 144.199219 139.117188 152.363281 132.726562 158.097656 127.457031 C 164.097656 121.90625 168.351562 116.644531 173.285156 110.347656 C 173.839844 109.644531 174.398438 108.929688 174.972656 108.195312 C 175.457031 107.570312 175.953125 106.933594 176.457031 106.289062 C 180.730469 100.78125 185.578125 94.539062 191.949219 87.816406 C 198.773438 80.617188 209.695312 70.71875 222.984375 64.492188 C 224.246094 63.902344 225.574219 63.320312 226.9375 62.761719 C 231.734375 60.789062 236.523438 59.265625 241.15625 57.789062 C 243.601562 57.007812 245.910156 56.273438 248.21875 55.476562 C 255.871094 52.839844 263.871094 49.535156 270.546875 43.25 C 277.773438 36.460938 281.6875 26.695312 280.523438 18.363281 L 280.914062 18.308594 C 281.464844 22.242188 280.902344 26.496094 279.402344 30.609375 Z M 279.394531 30.601562 " fill-opacity="1" fill-rule="nonzero"/></g></g></g><g clip-path="url(#664de5739c)"><g clip-path="url(#52a9287654)"><g clip-path="url(#3880e74fc3)"><path fill="#d9d9d9" d="M 277.382812 33.910156 C 275.703125 38.523438 272.917969 42.980469 269.292969 46.636719 C 262.769531 53.21875 254.753906 56.976562 247.769531 59.785156 C 245.105469 60.859375 242.421875 61.84375 239.578125 62.882812 C 235.523438 64.375 231.332031 65.910156 227.132812 67.746094 C 225.777344 68.335938 224.515625 68.914062 223.285156 69.511719 C 213.210938 74.390625 202.773438 81.875 192.269531 91.753906 C 187.34375 96.378906 183.101562 100.753906 179.359375 104.613281 C 177.453125 106.578125 175.65625 108.433594 173.929688 110.15625 C 173.285156 110.796875 172.65625 111.421875 172.027344 112.027344 C 165.855469 118.066406 160.921875 122.242188 154.996094 126.449219 C 147.882812 131.460938 139.683594 136.40625 127.972656 138.632812 C 126.914062 138.835938 125.804688 139.011719 124.671875 139.164062 C 114.792969 140.441406 104.285156 139.550781 95.011719 138.765625 C 94.207031 138.699219 93.410156 138.632812 92.621094 138.566406 C 78.792969 137.375 67.207031 136.90625 55.625 138.484375 C 46.714844 139.691406 38.660156 142.058594 31.691406 145.519531 C 27.878906 147.414062 24.273438 149.675781 20.984375 152.246094 C 10.5625 160.417969 1.6875 173.492188 -4.015625 189.0625 L -4.058594 189.183594 C -9.421875 203.882812 -11.878906 219.792969 -13.765625 233.558594 L -14.160156 233.503906 C -12.273438 219.71875 -9.804688 203.78125 -4.429688 189.046875 L -4.386719 188.925781 C 1.335938 173.289062 10.261719 160.152344 20.738281 151.933594 C 24.050781 149.34375 27.675781 147.070312 31.519531 145.164062 C 38.523438 141.679688 46.617188 139.304688 55.570312 138.09375 C 67.191406 136.507812 78.800781 136.980469 92.65625 138.171875 C 93.441406 138.238281 94.238281 138.304688 95.042969 138.375 C 104.296875 139.15625 114.78125 140.042969 124.617188 138.769531 C 125.742188 138.621094 126.84375 138.445312 127.898438 138.242188 C 139.535156 136.035156 147.695312 131.113281 154.769531 126.128906 C 160.675781 121.9375 165.597656 117.773438 171.753906 111.75 C 172.378906 111.144531 173.011719 110.519531 173.652344 109.878906 C 175.375 108.164062 177.171875 106.308594 179.074219 104.34375 C 182.820312 100.480469 187.0625 96.101562 191.996094 91.46875 C 202.527344 81.566406 212.996094 74.058594 223.109375 69.160156 C 224.347656 68.558594 225.609375 67.980469 226.96875 67.386719 C 231.183594 65.550781 235.382812 64.007812 239.441406 62.515625 C 242.28125 61.472656 244.964844 60.488281 247.617188 59.421875 C 254.5625 56.628906 262.539062 52.894531 269.007812 46.363281 C 275.804688 39.511719 279.601562 29.8125 278.671875 21.660156 L 279.066406 21.613281 C 279.511719 25.523438 278.890625 29.78125 277.378906 33.917969 Z M 277.382812 33.910156 " fill-opacity="1" fill-rule="nonzero"/></g></g></g><g clip-path="url(#032ff98f89)"><g clip-path="url(#b745cf62c9)"><g clip-path="url(#357da12b58)"><path fill="#d9d9d9" d="M 275.398438 37.28125 C 273.769531 41.738281 271.160156 46.066406 267.765625 49.742188 C 261.46875 56.578125 253.832031 60.644531 247.1875 63.722656 C 244.089844 65.160156 240.929688 66.476562 237.582031 67.871094 C 234.191406 69.285156 230.6875 70.742188 227.167969 72.375 C 225.839844 72.988281 224.613281 73.578125 223.410156 74.183594 C 213.925781 78.941406 203.746094 85.890625 192.296875 95.429688 C 189.480469 97.773438 186.886719 99.984375 184.375 102.125 C 179.988281 105.867188 176.195312 109.097656 172.574219 111.882812 C 171.859375 112.433594 171.148438 112.96875 170.460938 113.472656 C 164.554688 117.847656 159.097656 121.234375 151.628906 125.15625 C 145.214844 128.5 136.429688 133.070312 124.003906 135.089844 C 122.960938 135.261719 121.863281 135.414062 120.746094 135.542969 C 111.925781 136.53125 102.933594 136.125 94.234375 135.730469 C 92.511719 135.648438 90.8125 135.574219 89.152344 135.507812 C 73.871094 134.875 62.984375 135.496094 52.742188 137.582031 C 44.101562 139.332031 36.308594 142.136719 29.585938 145.914062 C 25.929688 147.964844 22.476562 150.347656 19.324219 153 C 6.582031 163.761719 -0.824219 178.898438 -4.792969 189.699219 C -4.824219 189.789062 -4.859375 189.882812 -4.894531 189.976562 C -10.136719 204.351562 -12.691406 219.324219 -14.859375 233.433594 L -15.253906 233.375 C -13.066406 219.152344 -10.496094 204.058594 -5.164062 189.5625 C -1.179688 178.714844 6.257812 163.511719 19.066406 152.699219 C 22.238281 150.027344 25.710938 147.628906 29.390625 145.566406 C 36.152344 141.769531 43.976562 138.949219 52.660156 137.191406 C 62.933594 135.097656 73.851562 134.476562 89.164062 135.109375 C 90.828125 135.175781 92.527344 135.253906 94.253906 135.328125 C 102.9375 135.722656 111.910156 136.128906 120.699219 135.144531 C 121.808594 135.015625 122.902344 134.867188 123.941406 134.695312 C 136.304688 132.691406 145.054688 128.132812 151.441406 124.804688 C 158.894531 120.894531 164.335938 117.519531 170.226562 113.15625 C 170.914062 112.648438 171.621094 112.117188 172.332031 111.566406 C 175.945312 108.785156 179.730469 105.558594 184.117188 101.820312 C 186.628906 99.679688 189.226562 97.460938 192.039062 95.121094 C 203.515625 85.5625 213.714844 78.597656 223.230469 73.824219 C 224.4375 73.21875 225.667969 72.628906 227.003906 72.015625 C 230.527344 70.382812 234.035156 68.917969 237.429688 67.507812 C 240.769531 66.113281 243.929688 64.800781 247.023438 63.363281 C 253.625 60.304688 261.21875 56.261719 267.472656 49.476562 C 273.957031 42.457031 277.542969 33.058594 276.828125 24.949219 L 277.226562 24.917969 C 277.570312 28.878906 276.910156 33.136719 275.398438 37.285156 Z M 275.398438 37.28125 " fill-opacity="1" fill-rule="nonzero"/></g></g></g><g clip-path="url(#5bc682c21e)"><g clip-path="url(#f01aa95129)"><g clip-path="url(#1b0013e2f6)"><path fill="#d9d9d9" d="M 273.402344 40.679688 C 271.835938 44.976562 269.398438 49.164062 266.242188 52.847656 C 260.125 60.003906 252.539062 64.523438 246.617188 67.660156 C 242.957031 69.601562 239.171875 71.363281 235.164062 73.230469 C 232.574219 74.4375 229.902344 75.683594 227.214844 77 C 225.90625 77.640625 224.703125 78.246094 223.542969 78.847656 C 212.121094 84.78125 201.445312 92.410156 192.328125 99.09375 C 184.761719 104.644531 177.613281 109.886719 171.222656 113.601562 C 170.445312 114.054688 169.660156 114.496094 168.894531 114.910156 C 161.757812 118.820312 155.0625 121.371094 148.257812 123.851562 L 146.746094 124.402344 C 139.847656 126.910156 131.257812 130.035156 120.042969 131.535156 C 119.015625 131.675781 117.933594 131.796875 116.824219 131.90625 C 109.277344 132.621094 101.5625 132.546875 94.105469 132.472656 C 91.179688 132.441406 88.417969 132.417969 85.6875 132.4375 C 71.53125 132.492188 60.148438 133.835938 49.863281 136.664062 C 41.5 138.949219 33.96875 142.191406 27.480469 146.296875 C 23.988281 148.503906 20.6875 151.007812 17.671875 153.75 C 8.074219 162.488281 0.0390625 175.136719 -5.5625 190.328125 C -10.800781 204.496094 -13.5625 219.332031 -15.949219 233.304688 L -16.339844 233.238281 C -13.949219 219.25 -11.183594 204.390625 -5.9375 190.191406 C -0.3125 174.941406 7.761719 162.238281 17.40625 153.457031 C 20.4375 150.703125 23.757812 148.183594 27.273438 145.964844 C 33.796875 141.835938 41.359375 138.582031 49.757812 136.285156 C 60.078125 133.449219 71.492188 132.101562 85.6875 132.042969 C 88.417969 132.023438 91.1875 132.050781 94.113281 132.078125 C 101.5625 132.148438 109.261719 132.226562 116.792969 131.515625 C 117.898438 131.410156 118.972656 131.28125 119.996094 131.140625 C 131.171875 129.644531 139.734375 126.53125 146.617188 124.027344 L 148.128906 123.476562 C 154.914062 121 161.59375 118.453125 168.710938 114.558594 C 169.46875 114.144531 170.253906 113.707031 171.027344 113.253906 C 177.394531 109.546875 184.535156 104.316406 192.097656 98.773438 C 201.222656 92.078125 211.914062 84.4375 223.359375 78.492188 C 224.523438 77.886719 225.730469 77.28125 227.039062 76.636719 C 229.726562 75.320312 232.402344 74.070312 234.996094 72.863281 C 238.992188 71 242.773438 69.238281 246.425781 67.304688 C 252.316406 64.183594 259.859375 59.683594 265.9375 52.585938 C 272.089844 45.40625 275.472656 36.304688 274.980469 28.238281 L 275.378906 28.214844 C 275.625 32.238281 274.921875 36.511719 273.402344 40.675781 Z M 273.402344 40.679688 " fill-opacity="1" fill-rule="nonzero"/></g></g></g><g clip-path="url(#07f127b172)"><g clip-path="url(#ee89e16787)"><g clip-path="url(#56d690bf48)"><path fill="#d9d9d9" d="M 271.355469 44.128906 C 269.839844 48.285156 267.582031 52.34375 264.714844 55.957031 C 260.109375 61.773438 254.347656 66.597656 246.039062 71.601562 C 241.632812 74.253906 236.992188 76.632812 232.078125 79.148438 C 230.492188 79.960938 228.882812 80.785156 227.257812 81.632812 C 225.9375 82.320312 224.761719 82.9375 223.671875 83.523438 C 214.449219 88.488281 205.359375 94.367188 197.34375 99.558594 C 195.640625 100.660156 193.976562 101.734375 192.359375 102.773438 C 182.640625 109 175.914062 112.757812 169.867188 115.328125 C 169.027344 115.6875 168.171875 116.03125 167.324219 116.355469 C 160.15625 119.132812 153.582031 120.609375 145.96875 122.316406 L 144.890625 122.558594 C 143.464844 122.878906 141.992188 123.21875 140.464844 123.574219 C 133.585938 125.171875 125.792969 126.980469 116.078125 128.003906 C 115.070312 128.113281 113.996094 128.207031 112.898438 128.292969 C 106.960938 128.75 100.894531 128.875 95.03125 128.992188 C 90.558594 129.082031 86.335938 129.167969 82.21875 129.390625 C 68.851562 130.066406 57.324219 132.15625 46.984375 135.765625 C 38.914062 138.570312 31.644531 142.253906 25.378906 146.699219 C 22.050781 149.058594 18.902344 151.6875 16.015625 154.511719 C 6.910156 163.464844 -0.816406 176.070312 -6.335938 190.972656 C -11.492188 204.875 -14.441406 219.449219 -17.03125 233.191406 L -17.425781 233.117188 C -14.832031 219.355469 -11.867188 204.75 -6.707031 190.832031 C -1.171875 175.878906 6.59375 163.21875 15.738281 154.230469 C 18.636719 151.386719 21.800781 148.75 25.148438 146.375 C 31.449219 141.90625 38.75 138.207031 46.855469 135.390625 C 57.234375 131.765625 68.796875 129.671875 82.203125 128.988281 C 86.332031 128.769531 90.554688 128.683594 95.027344 128.59375 C 100.890625 128.472656 106.949219 128.351562 112.875 127.894531 C 113.96875 127.808594 115.035156 127.710938 116.042969 127.605469 C 125.730469 126.582031 133.515625 124.777344 140.378906 123.183594 C 141.910156 122.828125 143.378906 122.488281 144.808594 122.167969 L 145.886719 121.929688 C 153.488281 120.222656 160.042969 118.746094 167.1875 115.984375 C 168.027344 115.660156 168.878906 115.320312 169.714844 114.960938 C 175.742188 112.398438 182.449219 108.652344 192.148438 102.441406 C 193.765625 101.402344 195.429688 100.324219 197.128906 99.226562 C 205.152344 94.035156 214.25 88.148438 223.488281 83.179688 C 224.578125 82.589844 225.753906 81.972656 227.074219 81.28125 C 228.695312 80.4375 230.304688 79.617188 231.898438 78.800781 C 236.808594 76.285156 241.441406 73.910156 245.835938 71.265625 C 254.101562 66.292969 259.828125 61.496094 264.40625 55.71875 C 270.136719 48.496094 273.402344 39.460938 273.144531 31.550781 L 273.539062 31.539062 C 273.671875 35.578125 272.898438 39.90625 271.355469 44.136719 Z M 271.355469 44.128906 " fill-opacity="1" fill-rule="nonzero"/></g></g></g><g clip-path="url(#d4ff34adfb)"><g clip-path="url(#ac68ba9950)"><g clip-path="url(#80bdb437cb)"><path fill="#d9d9d9" d="M 269.316406 47.644531 C 267.871094 51.605469 265.800781 55.496094 263.1875 59.0625 C 258.808594 65.058594 253.175781 70.292969 245.457031 75.535156 C 240.015625 79.238281 234.121094 82.488281 227.875 85.933594 L 227.300781 86.253906 C 226.144531 86.890625 224.976562 87.535156 223.804688 88.1875 C 218.269531 91.273438 212.742188 94.550781 207.394531 97.71875 C 202.128906 100.839844 197.152344 103.789062 192.386719 106.433594 C 182.992188 111.652344 175.402344 115.019531 168.511719 117.03125 C 167.597656 117.296875 166.671875 117.550781 165.757812 117.777344 C 158.683594 119.558594 151.953125 120.222656 144.832031 120.917969 C 143.742188 121.023438 142.636719 121.132812 141.523438 121.246094 C 138.449219 121.554688 135.199219 121.949219 131.753906 122.375 C 126.003906 123.085938 119.488281 123.886719 112.113281 124.445312 C 111.125 124.519531 110.101562 124.589844 108.976562 124.65625 C 105.300781 124.871094 101.546875 125.023438 97.917969 125.171875 C 91.496094 125.429688 84.859375 125.695312 78.746094 126.316406 C 65.882812 127.589844 54.546875 130.375 44.101562 134.84375 C 36.328125 138.152344 29.316406 142.273438 23.265625 147.078125 C 20.105469 149.585938 17.105469 152.335938 14.359375 155.253906 C 5.746094 164.410156 -1.675781 176.976562 -7.113281 191.59375 C -12.171875 205.191406 -15.328125 219.535156 -18.125 233.058594 L -18.515625 232.976562 C -15.710938 219.441406 -12.539062 205.078125 -7.488281 191.457031 C -2.035156 176.792969 5.417969 164.179688 14.066406 154.984375 C 16.828125 152.054688 19.84375 149.292969 23.019531 146.765625 C 29.097656 141.941406 36.140625 137.800781 43.945312 134.476562 C 54.433594 129.996094 65.804688 127.195312 78.707031 125.917969 C 84.832031 125.296875 91.480469 125.027344 97.902344 124.769531 C 101.53125 124.625 105.285156 124.472656 108.957031 124.257812 C 110.078125 124.1875 111.101562 124.121094 112.085938 124.042969 C 119.453125 123.484375 125.964844 122.683594 131.710938 121.976562 C 135.152344 121.550781 138.410156 121.152344 141.484375 120.847656 C 142.601562 120.734375 143.707031 120.625 144.796875 120.519531 C 151.90625 119.820312 158.617188 119.167969 165.664062 117.390625 C 166.570312 117.160156 167.496094 116.910156 168.402344 116.648438 C 175.265625 114.644531 182.828125 111.289062 192.195312 106.085938 C 196.957031 103.441406 201.929688 100.496094 207.195312 97.375 C 212.542969 94.203125 218.074219 90.921875 223.613281 87.839844 C 224.785156 87.1875 225.953125 86.542969 227.109375 85.90625 L 227.6875 85.585938 C 233.921875 82.144531 239.808594 78.894531 245.234375 75.210938 C 252.910156 69.992188 258.515625 64.789062 262.867188 58.828125 C 268.257812 51.464844 271.332031 42.71875 271.296875 34.839844 L 271.695312 34.839844 C 271.710938 38.980469 270.882812 43.355469 269.316406 47.644531 Z M 269.316406 47.644531 " fill-opacity="1" fill-rule="nonzero"/></g></g></g><g clip-path="url(#dcaa43c36b)"><g clip-path="url(#7840c819bb)"><g clip-path="url(#9c38dd257c)"><path fill="#d9d9d9" d="M 267.21875 51.273438 C 265.847656 55.035156 263.972656 58.738281 261.667969 62.164062 C 257.453125 68.441406 252.117188 73.945312 244.886719 79.472656 C 239.257812 83.773438 233.132812 87.496094 227.347656 90.878906 C 226.222656 91.535156 225.085938 92.195312 223.9375 92.855469 L 222.296875 93.804688 C 212.28125 99.597656 201.921875 105.589844 192.421875 110.105469 C 183.035156 114.5625 174.773438 117.390625 167.160156 118.742188 C 166.175781 118.917969 165.179688 119.074219 164.191406 119.207031 C 156.894531 120.199219 149.988281 120.101562 142.667969 119.992188 C 141.183594 119.972656 139.679688 119.949219 138.15625 119.933594 C 130.507812 119.859375 122.082031 120.246094 112.324219 120.703125 L 108.152344 120.894531 C 107.125 120.945312 106.09375 120.988281 105.054688 121.03125 C 95.050781 121.425781 84.703125 121.828125 75.28125 123.246094 C 62.832031 125.09375 51.691406 128.585938 41.21875 133.925781 C 33.75 137.726562 27 142.277344 21.15625 147.464844 C 18.160156 150.117188 15.316406 152.992188 12.695312 156.003906 C 4.464844 165.488281 -2.460938 177.675781 -7.894531 192.222656 C -12.847656 205.507812 -16.210938 219.625 -19.222656 232.929688 L -19.609375 232.839844 C -16.597656 219.523438 -13.238281 205.410156 -8.265625 192.082031 C -2.816406 177.488281 4.132812 165.261719 12.394531 155.738281 C 15.027344 152.714844 17.882812 149.828125 20.890625 147.164062 C 26.761719 141.957031 33.539062 137.386719 41.035156 133.566406 C 51.550781 128.207031 62.730469 124.703125 75.214844 122.851562 C 84.664062 121.433594 95.019531 121.023438 105.035156 120.628906 C 106.074219 120.585938 107.101562 120.542969 108.128906 120.492188 L 112.300781 120.300781 C 122.066406 119.84375 130.496094 119.453125 138.15625 119.53125 C 139.679688 119.546875 141.183594 119.566406 142.671875 119.585938 C 149.972656 119.691406 156.867188 119.796875 164.132812 118.804688 C 165.117188 118.671875 166.109375 118.515625 167.085938 118.34375 C 174.664062 117 182.894531 114.183594 192.246094 109.742188 C 201.734375 105.230469 212.082031 99.246094 222.09375 93.457031 L 223.734375 92.507812 C 224.878906 91.84375 226.015625 91.1875 227.140625 90.53125 C 232.910156 87.15625 239.027344 83.441406 244.636719 79.152344 C 251.839844 73.652344 257.140625 68.179688 261.335938 61.941406 C 266.300781 54.558594 269.257812 45.878906 269.453125 38.132812 L 269.851562 38.140625 C 269.746094 42.363281 268.828125 46.859375 267.21875 51.269531 Z M 267.21875 51.273438 " fill-opacity="1" fill-rule="nonzero"/></g></g></g><g clip-path="url(#35eebce2fc)"><g clip-path="url(#8700fd21a3)"><g clip-path="url(#4c053f2a0f)"><path fill="#d9d9d9" d="M 265.109375 55.023438 C 263.832031 58.527344 262.160156 61.984375 260.140625 65.269531 C 256.152344 71.765625 250.972656 77.699219 244.304688 83.410156 C 239.660156 87.390625 234.285156 91.234375 227.386719 95.507812 C 226.347656 96.152344 225.257812 96.8125 224.070312 97.527344 C 211.945312 104.792969 201.601562 110.109375 192.449219 113.777344 C 182.992188 117.5625 174.03125 119.808594 165.804688 120.457031 C 164.757812 120.539062 163.6875 120.597656 162.625 120.636719 C 154.921875 120.917969 147.644531 120.085938 139.9375 119.203125 C 138.234375 119.011719 136.523438 118.8125 134.792969 118.628906 C 125.316406 117.605469 115.304688 117.1875 104.1875 117.355469 C 103.175781 117.371094 102.15625 117.386719 101.132812 117.410156 C 89.570312 117.644531 79.980469 118.554688 71.8125 120.191406 C 59.890625 122.5625 48.625 126.878906 38.339844 133.019531 C 31.175781 137.289062 24.6875 142.28125 19.054688 147.859375 C 16.230469 150.652344 13.535156 153.644531 11.042969 156.761719 C 3.328125 166.429688 -3.304688 178.574219 -8.660156 192.867188 C -13.527344 205.839844 -16.945312 219.167969 -20.304688 232.8125 L -20.691406 232.71875 C -17.332031 219.058594 -13.910156 205.722656 -9.035156 192.726562 C -3.660156 178.398438 2.992188 166.210938 10.734375 156.515625 C 13.234375 153.386719 15.945312 150.382812 18.777344 147.582031 C 24.4375 141.980469 30.949219 136.96875 38.140625 132.683594 C 48.46875 126.519531 59.773438 122.191406 71.742188 119.8125 C 79.929688 118.167969 89.546875 117.253906 101.128906 117.019531 C 102.15625 116.996094 103.175781 116.980469 104.191406 116.964844 C 115.324219 116.796875 125.351562 117.214844 134.847656 118.238281 C 136.578125 118.421875 138.292969 118.621094 139.996094 118.8125 C 147.683594 119.691406 154.949219 120.527344 162.621094 120.246094 C 163.679688 120.210938 164.746094 120.148438 165.785156 120.066406 C 173.972656 119.425781 182.894531 117.1875 192.3125 113.414062 C 201.445312 109.757812 211.773438 104.449219 223.875 97.191406 C 225.066406 96.480469 226.152344 95.816406 227.191406 95.175781 C 234.070312 90.917969 239.425781 87.082031 244.054688 83.117188 C 250.6875 77.433594 255.84375 71.53125 259.8125 65.070312 C 264.421875 57.578125 267.195312 49.183594 267.621094 41.4375 L 268.015625 41.460938 C 267.777344 45.867188 266.777344 50.488281 265.125 55.03125 Z M 265.109375 55.023438 " fill-opacity="1" fill-rule="nonzero"/></g></g></g><g clip-path="url(#db6e16c3fd)"><g clip-path="url(#47f0de3b7f)"><g clip-path="url(#ab96b04248)"><path fill="#d9d9d9" d="M 262.941406 58.972656 C 261.78125 62.15625 260.332031 65.3125 258.613281 68.375 C 254.800781 75.203125 249.929688 81.40625 243.726562 87.34375 C 239.0625 91.808594 233.734375 95.992188 227.433594 100.128906 C 226.386719 100.8125 225.300781 101.507812 224.199219 102.191406 C 213.5 108.84375 202.535156 114.121094 192.480469 117.441406 C 182.777344 120.644531 173.34375 122.230469 164.457031 122.160156 C 163.347656 122.148438 162.203125 122.117188 161.0625 122.058594 C 152.824219 121.640625 145.054688 120.0625 136.820312 118.394531 C 135.035156 118.03125 133.238281 117.667969 131.433594 117.3125 C 120.058594 115.082031 110.144531 113.96875 100.226562 113.804688 C 99.222656 113.785156 98.21875 113.78125 97.210938 113.78125 C 86.839844 113.78125 77.128906 114.910156 68.347656 117.121094 C 56.71875 120.039062 45.652344 125.078125 35.457031 132.101562 C 28.601562 136.8125 22.375 142.246094 16.945312 148.242188 C 14.296875 151.167969 11.753906 154.28125 9.382812 157.503906 C 2.191406 167.316406 -4.140625 179.425781 -9.4375 193.488281 C -14.195312 206.109375 -17.808594 219.226562 -21.398438 232.675781 L -21.785156 232.574219 C -18.191406 219.113281 -14.574219 205.984375 -9.816406 193.347656 C -4.503906 179.253906 1.847656 167.113281 9.058594 157.265625 C 11.433594 154.03125 13.988281 150.90625 16.644531 147.972656 C 22.097656 141.953125 28.351562 136.507812 35.230469 131.773438 C 45.460938 124.726562 56.570312 119.667969 68.246094 116.738281 C 77.058594 114.515625 86.804688 113.386719 97.207031 113.386719 C 98.21875 113.382812 99.226562 113.394531 100.230469 113.40625 C 110.171875 113.570312 120.109375 114.683594 131.507812 116.921875 C 133.316406 117.277344 135.113281 117.636719 136.902344 118.003906 C 145.117188 119.667969 152.878906 121.242188 161.085938 121.664062 C 162.21875 121.722656 163.359375 121.753906 164.460938 121.765625 C 173.308594 121.835938 182.691406 120.253906 192.355469 117.066406 C 202.378906 113.753906 213.320312 108.496094 223.992188 101.859375 C 225.085938 101.179688 226.171875 100.484375 227.214844 99.800781 C 233.492188 95.675781 238.804688 91.507812 243.453125 87.058594 C 249.628906 81.144531 254.472656 74.972656 258.269531 68.183594 C 262.511719 60.609375 265.101562 52.5 265.765625 44.730469 L 266.160156 44.761719 C 265.761719 49.441406 264.667969 54.242188 262.941406 58.972656 Z M 262.941406 58.972656 " fill-opacity="1" fill-rule="nonzero"/></g></g></g><g clip-path="url(#fad7bd8a43)"><g clip-path="url(#04c280eae0)"><g clip-path="url(#6eaca2a237)"><path fill="#d9d9d9" d="M 260.625 63.335938 C 259.617188 66.09375 258.433594 68.824219 257.089844 71.480469 C 253.511719 78.554688 248.820312 85.214844 243.148438 91.28125 C 238.574219 96.175781 233.300781 100.707031 227.476562 104.757812 C 226.460938 105.46875 225.402344 106.175781 224.332031 106.863281 C 214.328125 113.324219 203.320312 118.25 192.507812 121.109375 C 182.519531 123.75 172.632812 124.675781 163.109375 123.867188 C 161.929688 123.765625 160.71875 123.636719 159.507812 123.484375 C 150.625 122.347656 141.863281 119.875 133.390625 117.488281 C 131.621094 116.992188 129.851562 116.492188 128.074219 116.003906 C 118.941406 113.484375 108.019531 110.832031 96.261719 110.261719 C 95.261719 110.214844 94.261719 110.179688 93.289062 110.160156 C 83.566406 109.96875 74.007812 111.28125 64.882812 114.0625 C 53.5 117.527344 42.628906 123.289062 32.578125 131.191406 C 26.03125 136.339844 20.0625 142.203125 14.839844 148.636719 C 12.367188 151.683594 9.976562 154.921875 7.734375 158.261719 C 0.984375 168.324219 -4.882812 180.058594 -10.210938 194.128906 C -14.832031 206.351562 -18.503906 218.761719 -22.488281 232.5625 L -22.871094 232.453125 C -18.890625 218.648438 -15.214844 206.222656 -10.585938 193.988281 C -5.253906 179.890625 0.632812 168.128906 7.398438 158.039062 C 9.644531 154.6875 12.046875 151.4375 14.527344 148.386719 C 19.769531 141.929688 25.757812 136.042969 32.328125 130.878906 C 42.417969 122.945312 53.328125 117.164062 64.761719 113.683594 C 73.929688 110.886719 83.527344 109.566406 93.296875 109.765625 C 94.269531 109.78125 95.273438 109.816406 96.28125 109.867188 C 108.074219 110.4375 119.027344 113.097656 128.179688 115.621094 C 129.957031 116.109375 131.730469 116.613281 133.5 117.109375 C 141.957031 119.496094 150.707031 121.960938 159.558594 123.089844 C 160.765625 123.246094 161.972656 123.375 163.144531 123.472656 C 172.621094 124.277344 182.464844 123.351562 192.40625 120.726562 C 203.183594 117.878906 214.148438 112.96875 224.117188 106.527344 C 225.179688 105.839844 226.234375 105.132812 227.25 104.429688 C 233.050781 100.394531 238.304688 95.882812 242.859375 91.011719 C 248.503906 84.96875 253.171875 78.34375 256.734375 71.300781 C 260.53125 63.808594 263.011719 55.761719 263.921875 48.023438 L 264.316406 48.070312 C 263.722656 53.101562 262.46875 58.269531 260.625 63.335938 Z M 260.625 63.335938 " fill-opacity="1" fill-rule="nonzero"/></g></g></g><g clip-path="url(#998392ae28)"><g clip-path="url(#c3b4d737d3)"><g clip-path="url(#51b2dbac86)"><path fill="#d9d9d9" d="M 258.140625 68.359375 C 252.210938 84.617188 241.546875 99.046875 227.515625 109.378906 C 208.757812 123.203125 184.789062 129.101562 161.757812 125.570312 C 150.773438 123.886719 140.050781 120.09375 129.671875 116.429688 C 116.691406 111.84375 103.265625 107.097656 89.359375 106.53125 C 61.550781 105.398438 32.898438 121.28125 12.722656 149.015625 C -5.375 173.902344 -14.632812 203.65625 -23.582031 232.433594 L -23.960938 232.316406 C -15.003906 203.511719 -5.738281 173.722656 12.402344 148.789062 C 21.738281 135.957031 33.414062 125.222656 46.167969 117.738281 C 60.101562 109.566406 75.039062 105.558594 89.378906 106.140625 C 103.339844 106.707031 116.792969 111.460938 129.808594 116.058594 C 140.164062 119.71875 150.875 123.507812 161.820312 125.183594 C 184.75 128.699219 208.609375 122.824219 227.28125 109.066406 C 245.957031 95.304688 258.636719 74.261719 262.074219 51.320312 L 262.46875 51.378906 C 261.597656 57.1875 260.136719 62.882812 258.136719 68.363281 Z M 258.140625 68.359375 " fill-opacity="1" fill-rule="nonzero"/></g></g></g></svg>